<?xml version="1.0" standalone="no"?>
<!DOCTYPE svg PUBLIC "-//W3C//DTD SVG 20010904//EN"
 "http://www.w3.org/TR/2001/REC-SVG-20010904/DTD/svg10.dtd">
<svg version="1.0" xmlns="http://www.w3.org/2000/svg"
 width="450.000000pt" height="450.000000pt" viewBox="0 0 450.000000 450.000000"
 preserveAspectRatio="xMidYMid meet">
<metadata>
Created by potrace 1.14, written by Peter Selinger 2001-2017
</metadata>
<g transform="translate(0.000000,450.000000) scale(0.100000,-0.100000)"
fill="#000000" stroke="none">
<path d="M2209 4090 c-2 -74 -2 -75 -26 -78 -22 -3 -23 -8 -23 -83 l0 -79 -50
0 c-27 0 -50 -4 -50 -10 0 -5 11 -10 25 -10 20 0 25 -5 25 -25 0 -20 -5 -25
-25 -25 -14 0 -25 -4 -25 -10 0 -5 23 -10 50 -10 l50 0 -2 -182 -3 -183 -86
-3 c-80 -3 -87 -1 -92 18 -7 26 -23 26 -30 0 -4 -16 -13 -20 -49 -20 -64 0
-86 9 -93 37 -7 29 -29 26 -33 -5 -3 -20 -9 -22 -83 -22 -64 0 -79 3 -79 15 0
8 -4 15 -10 15 -5 0 -10 -9 -10 -20 0 -17 -7 -20 -50 -20 -43 0 -50 -3 -50
-20 0 -20 7 -20 335 -20 l335 0 0 -47 c0 -27 -3 -78 -7 -115 -5 -56 -9 -68
-24 -68 -14 0 -19 -10 -21 -47 -3 -41 -6 -48 -25 -51 -17 -3 -23 -10 -23 -28
0 -15 6 -24 15 -24 11 0 15 -12 15 -45 0 -38 -3 -45 -20 -45 -16 0 -20 -7 -20
-30 0 -25 -4 -30 -25 -30 -24 0 -25 -3 -25 -55 l0 -55 -70 0 -70 0 0 95 c0 95
0 95 -25 95 -21 0 -25 5 -25 30 l0 30 -80 0 -80 0 0 -30 c0 -25 -4 -30 -25
-30 -25 0 -25 0 -26 -102 -1 -144 -5 -153 -59 -153 -26 0 -45 -5 -47 -12 -3
-8 5 -13 21 -13 16 0 26 -6 26 -15 0 -12 -14 -15 -64 -15 -63 0 -65 1 -68 28
l-3 27 -160 5 c-88 3 -154 9 -147 13 19 12 14 27 -8 27 -15 0 -20 7 -20 25 0
22 -4 25 -34 25 -34 0 -61 20 -38 28 23 7 11 22 -18 22 -27 0 -30 -3 -30 -30
0 -31 -23 -42 -34 -17 -5 10 -7 10 -12 0 -8 -18 -34 -16 -34 2 0 8 -4 15 -10
15 -5 0 -10 -7 -10 -15 0 -21 -30 -19 -46 3 -13 16 -13 16 -14 0 0 -10 -3 -18
-6 -18 -4 0 -13 8 -20 18 -12 15 -13 9 -14 -40 0 -49 -3 -58 -18 -58 -15 0
-18 6 -14 30 3 23 0 30 -12 30 -9 0 -22 11 -28 25 -7 16 -19 25 -35 25 -18 0
-23 5 -23 25 0 16 -6 25 -15 25 -12 0 -15 -16 -15 -80 0 -79 0 -80 -25 -80
-21 0 -25 -5 -25 -30 l0 -29 -98 -3 -97 -3 -3 -32 -3 -33 75 0 76 0 0 -49 c0
-47 2 -50 27 -53 27 -3 28 -5 31 -70 3 -63 1 -68 -17 -68 -18 0 -20 5 -14 31
l6 30 -64 -3 c-48 -3 -64 -7 -64 -18 0 -11 13 -15 50 -15 48 0 50 -1 53 -30 3
-45 -9 -57 -62 -57 -25 0 -46 -4 -46 -9 0 -5 11 -9 25 -9 16 0 25 -6 25 -15 0
-12 -15 -15 -75 -15 l-75 0 0 -44 0 -43 56 4 c70 5 65 -14 -6 -23 -50 -7 -50
-7 -50 -44 l0 -38 45 0 c25 0 43 4 39 9 -3 5 0 9 5 9 6 0 11 -5 11 -11 0 -7
10 -9 25 -7 14 3 28 2 30 -2 3 -5 14 -6 25 -3 18 5 20 0 20 -41 0 -43 -2 -47
-22 -44 -16 2 -24 -3 -26 -16 -3 -15 1 -18 22 -14 18 4 26 1 26 -8 0 -10 -16
-14 -60 -14 l-60 0 0 55 0 55 -35 0 -35 0 0 -60 c0 -53 2 -60 20 -60 18 0 20
-7 20 -65 l0 -65 31 0 c24 0 30 -3 25 -16 -3 -9 -6 -38 -6 -65 0 -46 -1 -49
-26 -49 -24 0 -26 -3 -20 -31 3 -17 6 -35 6 -40 0 -5 7 -9 16 -9 10 0 14 6 10
15 -3 8 -1 15 4 15 6 0 10 -7 10 -15 0 -8 7 -15 16 -15 10 0 14 6 10 15 -4 10
1 15 14 15 11 0 20 -7 20 -15 0 -8 7 -15 15 -15 18 0 20 16 3 23 -10 4 -10 6
0 6 6 1 13 9 13 19 1 9 7 -26 13 -78 9 -82 13 -95 28 -92 10 2 18 -2 18 -8 0
-5 -9 -10 -20 -10 -11 0 -20 -7 -20 -15 0 -11 12 -15 45 -15 l45 0 0 -90 0
-90 35 0 c34 0 35 1 36 43 1 23 0 53 0 67 -1 14 2 36 6 48 8 22 9 22 23 -12
l13 -35 124 3 123 4 0 -29 0 -29 110 0 110 0 0 30 c0 29 1 30 49 30 49 0 50 1
53 33 3 37 23 35 23 -3 l1 -25 123 -3 c91 -2 121 -6 118 -15 -2 -7 -13 -13
-25 -15 -12 -2 -22 -10 -22 -17 0 -20 17 -27 24 -10 3 9 18 15 36 15 27 0 30
-3 30 -33 0 -18 5 -38 11 -44 6 -6 8 -16 5 -22 -14 -21 -26 -10 -26 23 0 33
-1 33 -40 32 -31 0 -40 -5 -40 -19 0 -14 5 -16 26 -11 24 6 26 4 24 -22 -1
-16 -1 -33 0 -39 2 -5 3 -32 4 -60 1 -39 5 -51 19 -53 9 -2 17 1 17 7 0 6 -4
11 -10 11 -5 0 -10 6 -10 14 0 18 31 30 40 15 5 -7 10 -7 13 -2 4 6 35 9 69 8
61 -1 63 -2 61 -27 -1 -22 4 -27 30 -32 18 -4 56 -6 85 -6 l52 1 0 -120 c0
-114 1 -121 20 -121 11 0 20 -4 20 -10 0 -5 -9 -10 -20 -10 -11 0 -20 -7 -20
-15 0 -11 12 -15 48 -15 48 0 49 0 44 -30 l-4 -30 92 0 92 0 -7 -30 c-4 -19
-3 -30 4 -30 6 0 11 -9 11 -21 0 -12 5 -19 13 -16 6 2 11 11 9 21 -2 9 4 16
13 16 8 0 15 -9 15 -20 0 -11 5 -20 10 -20 6 0 10 9 10 20 0 11 7 20 15 20 8
0 15 -9 15 -20 0 -11 5 -20 10 -20 6 0 10 9 10 20 0 11 7 20 15 20 8 0 15 -9
15 -20 0 -16 7 -20 35 -20 28 0 35 4 35 20 0 15 -7 20 -25 20 -20 0 -25 5 -25
25 0 21 5 25 30 25 23 0 30 -4 30 -20 0 -15 7 -20 25 -20 20 0 25 5 25 25 0
21 5 25 29 25 16 0 31 6 34 13 3 9 7 9 19 -1 13 -10 18 -9 28 3 11 13 8 16
-19 21 -44 9 -39 22 9 22 48 1 60 7 60 33 0 14 7 19 25 19 24 0 25 2 25 65 l0
64 31 -6 32 -6 -7 36 c-7 35 -5 37 19 37 22 0 25 4 23 27 -3 26 -1 27 50 28
61 2 67 6 52 34 -12 24 -13 24 63 22 45 -1 48 1 45 22 -2 12 -9 21 -16 20 -6
-2 -17 -4 -23 -5 -6 -2 -14 3 -16 10 -3 7 4 12 16 12 18 0 21 6 21 50 0 43 -2
49 -19 47 -11 -1 -20 3 -20 8 -1 6 5 11 12 11 6 1 18 2 25 3 6 0 12 14 12 31
l0 30 60 0 60 0 0 -30 c0 -28 2 -30 40 -30 39 0 39 1 34 30 l-6 30 88 1 c49 0
212 0 362 -1 259 -1 273 0 272 17 -1 10 -2 24 -1 31 1 15 31 16 31 1 0 -8 4
-8 15 1 8 6 18 9 23 6 17 -10 122 -14 128 -5 3 5 16 6 30 3 17 -4 26 -1 30 10
6 15 7 15 19 0 13 -19 35 -11 35 12 0 8 -10 14 -22 15 -22 1 -22 1 2 9 14 4
46 8 73 9 35 1 47 5 47 16 0 11 -11 15 -40 15 -22 0 -40 5 -40 10 0 6 6 11 13
11 6 1 19 3 27 4 8 1 27 3 43 4 35 1 40 38 5 39 -13 0 -27 1 -33 2 -5 1 -22 2
-37 1 -25 -1 -28 -5 -28 -36 0 -31 -3 -35 -25 -35 -14 0 -25 5 -25 10 0 6 9
10 20 10 26 0 27 37 3 56 -16 12 -9 13 50 14 53 0 67 3 67 15 0 12 -16 15 -77
16 -43 0 -72 3 -65 6 6 2 12 13 12 24 0 16 -7 19 -40 19 -22 0 -40 5 -40 10 0
6 11 10 25 10 16 0 25 6 25 16 0 12 -7 15 -25 12 -14 -3 -28 -2 -31 3 -2 4
-11 6 -18 3 -8 -3 -17 -1 -21 5 -6 11 7 15 33 12 6 -1 12 5 12 13 0 17 -14 28
-24 19 -15 -15 -36 -10 -36 8 0 14 7 19 30 19 27 0 30 3 30 30 0 26 3 30 28
30 15 0 73 0 130 0 l102 0 0 25 c0 21 -5 25 -29 25 -23 0 -30 5 -33 25 -3 14
-1 28 3 31 20 12 7 24 -26 24 -33 0 -35 2 -29 25 5 19 2 25 -10 25 -12 0 -15
-6 -10 -25 5 -19 2 -25 -11 -25 -13 0 -16 6 -11 25 5 20 3 25 -14 25 -22 0
-26 -10 -10 -26 8 -8 7 -14 -3 -23 -20 -16 -45 12 -28 32 6 9 7 17 1 23 -11
11 -2 54 11 54 6 0 12 -7 15 -15 9 -22 27 -18 21 5 -3 11 -1 20 4 20 5 0 9 6
9 14 0 14 -42 26 -91 26 -24 0 -29 4 -29 25 0 20 -5 25 -25 25 l-25 0 0 105 0
105 31 0 c26 0 29 3 24 20 -3 11 -3 25 1 32 5 7 8 22 9 32 0 20 18 27 70 27
16 0 33 6 37 12 6 9 8 9 8 0 0 -7 7 -13 15 -13 19 0 21 60 3 61 -32 2 -78 0
-130 -7 -58 -7 -66 -2 -48 26 8 13 10 12 10 -2 0 -24 17 -23 30 1 15 28 12 41
-7 42 -11 0 -13 3 -5 6 6 2 12 13 12 24 0 15 -7 19 -31 19 -29 0 -31 2 -25 27
5 16 3 29 -4 33 -9 5 -8 13 1 28 12 19 11 24 -6 37 -11 9 -15 14 -8 11 19 -10
28 16 10 29 -10 7 -17 22 -17 34 0 16 -6 21 -25 21 -23 0 -25 -3 -25 -50 l0
-50 -51 0 c-51 0 -51 0 -46 -28 5 -25 3 -27 -29 -28 -19 0 -34 3 -34 8 0 4 7
8 15 8 8 0 15 9 15 20 0 30 -27 24 -33 -8 -5 -25 -9 -27 -62 -30 -38 -2 -55 0
-50 7 3 6 26 11 51 11 37 0 44 3 44 20 0 11 -4 20 -10 20 -5 0 -10 -5 -10 -11
0 -6 -7 -4 -15 5 -8 8 -15 24 -15 35 0 17 -6 21 -36 21 -33 0 -36 -2 -32 -25
4 -21 1 -25 -19 -25 -28 0 -40 -24 -23 -45 10 -12 -1 -15 -77 -17 l-88 -3 3
-27 c3 -27 2 -28 -43 -28 -47 0 -47 0 -40 30 6 28 5 30 -24 30 -27 0 -31 3
-31 29 0 24 -3 28 -22 24 l-23 -4 4 130 c3 118 1 131 -14 131 -14 0 -16 7 -13
35 4 31 1 35 -19 35 -18 0 -23 6 -23 25 l0 25 290 0 c251 0 290 2 290 15 0 11
-12 15 -50 15 l-50 0 0 40 c0 40 -15 54 -26 25 -4 -8 -13 -15 -21 -15 -11 0
-13 7 -9 24 7 29 -1 38 -25 26 -12 -7 -20 -6 -24 1 -4 6 -14 8 -22 5 -8 -3
-32 -3 -54 0 l-39 7 0 48 c0 48 -1 49 -30 49 -26 0 -30 4 -30 26 0 17 -6 28
-20 31 -13 3 -20 14 -20 28 0 17 -7 25 -22 27 -19 2 -24 10 -26 46 -2 23 -7
42 -12 42 -6 0 -7 -20 -3 -45 l6 -45 -77 0 c-69 0 -76 -2 -76 -20 0 -29 -37
-27 -43 3 l-4 22 -2 -22 c-1 -19 -7 -23 -31 -23 -16 0 -30 -4 -30 -10 0 -5 14
-10 30 -10 25 0 30 -4 30 -24 0 -13 -6 -27 -12 -29 -7 -3 5 -5 27 -5 23 0 30
3 17 5 -17 3 -22 10 -20 26 3 20 11 23 73 28 39 3 62 6 53 7 -10 1 -18 9 -18
17 0 11 12 15 45 15 41 0 45 -2 45 -24 0 -21 5 -24 27 -23 30 2 45 -29 21 -44
-8 -6 7 -9 40 -9 l52 0 0 -100 0 -100 -124 0 -125 0 -3 53 -3 52 -69 3 c-39 2
-74 -2 -80 -8 -7 -7 -2 -10 17 -10 22 0 27 -5 27 -25 0 -18 -5 -25 -20 -25
-13 0 -20 -7 -20 -20 0 -18 -7 -20 -75 -20 -68 0 -75 2 -75 20 0 11 -7 20 -15
20 -8 0 -15 -9 -15 -20 0 -18 -7 -20 -60 -20 -57 0 -60 1 -60 25 0 16 -6 25
-15 25 -9 0 -15 -9 -15 -25 0 -22 -4 -25 -34 -25 -21 0 -36 -6 -40 -15 -5 -13
24 -15 224 -15 l230 0 0 -25 c0 -16 -6 -25 -15 -25 -10 0 -15 -10 -15 -30 0
-18 -6 -33 -15 -36 -12 -5 -15 -26 -15 -100 0 -87 -1 -94 -20 -94 -19 0 -20
-7 -20 -90 0 -83 -1 -90 -20 -90 -16 0 -20 7 -20 30 0 25 -4 30 -25 30 -25 0
-25 1 -25 80 l0 80 -90 0 -90 0 -1 -72 c-1 -40 0 -90 1 -110 1 -37 1 -38 -34
-38 -33 0 -36 2 -36 30 l0 30 -70 0 c-68 0 -70 1 -70 25 0 14 -7 28 -15 31
-11 5 -15 21 -15 60 0 51 -1 54 -25 54 -21 0 -25 5 -25 30 0 23 -5 30 -19 30
-26 0 -36 17 -21 35 7 8 10 22 6 30 -3 9 1 18 9 21 9 4 15 19 15 35 0 22 -5
29 -20 29 -17 0 -20 7 -20 45 0 37 -3 45 -19 45 -23 0 -31 17 -24 53 4 19 0
29 -11 33 -13 5 -16 21 -16 75 l0 69 240 0 240 0 0 50 c0 47 -2 50 -25 50 -18
0 -25 5 -25 20 0 11 -4 20 -10 20 -5 0 -10 -7 -10 -15 0 -12 -14 -15 -65 -15
l-65 0 0 -35 0 -35 -140 0 -140 0 0 185 0 185 45 0 c33 0 45 4 45 15 0 10 -10
15 -30 15 -23 0 -30 4 -30 20 0 12 10 24 23 30 19 8 17 9 -15 9 l-38 1 0 80
c0 73 -2 80 -20 80 -18 0 -20 7 -20 65 l0 65 -40 0 -40 0 -1 -50z m561 -665
c0 -12 -14 -15 -65 -15 -51 0 -65 3 -65 15 0 12 14 15 65 15 51 0 65 -3 65
-15z m740 -250 c0 -8 -7 -15 -15 -15 -16 0 -20 12 -8 23 11 12 23 8 23 -8z
m50 -6 c0 -5 -7 -9 -15 -9 -15 0 -20 12 -9 23 8 8 24 -1 24 -14z m48 3 c2 -7
-3 -12 -12 -12 -9 0 -16 7 -16 16 0 17 22 14 28 -4z m-1468 -297 c0 -8 -7 -15
-15 -15 -8 0 -15 7 -15 15 0 8 7 15 15 15 8 0 15 -7 15 -15z m50 0 c0 -8 -7
-15 -15 -15 -8 0 -15 7 -15 15 0 8 7 15 15 15 8 0 15 -7 15 -15z m94 -11 c-5
-20 -2 -26 14 -31 12 -3 22 -16 25 -31 2 -15 7 -34 11 -43 6 -14 -4 -16 -83
-17 -67 -1 -90 2 -94 12 -7 18 1 26 29 26 13 0 26 5 29 10 3 6 2 10 -2 10 -5
0 -8 20 -8 45 l0 45 43 0 c41 0 42 -1 36 -26z m-584 -84 c0 -5 -4 -10 -9 -10
-6 0 -13 5 -16 10 -3 6 1 10 9 10 9 0 16 -4 16 -10z m-6 -49 c3 -5 -1 -11 -9
-15 -15 -6 -29 7 -18 18 9 9 21 8 27 -3z m-654 -31 c0 -5 -7 -10 -15 -10 -8 0
-15 5 -15 10 0 6 7 10 15 10 8 0 15 -4 15 -10z m-94 -25 c-1 -27 -26 -36 -26
-9 0 9 -6 14 -12 11 -7 -2 -12 -10 -10 -16 1 -6 -5 -11 -13 -11 -8 0 -15 5
-15 11 0 8 -5 7 -15 -1 -13 -11 -14 -10 -9 4 5 13 0 16 -25 16 -17 0 -31 5
-31 10 0 6 33 10 79 10 78 0 79 0 77 -25z m47 18 c-7 -2 -19 -2 -25 0 -7 3 -2
5 12 5 14 0 19 -2 13 -5z m-293 -29 c0 -8 -4 -14 -10 -14 -5 0 -10 9 -10 21 0
11 5 17 10 14 6 -3 10 -13 10 -21z m3215 -12 c-3 -3 -11 0 -18 7 -9 10 -8 11
6 5 10 -3 15 -9 12 -12z m-3230 -54 c6 -4 2 -8 -7 -8 -10 0 -18 7 -18 17 0 9
3 12 8 7 4 -5 12 -12 17 -16z m55 14 c0 -13 -12 -22 -22 -16 -10 6 -1 24 13
24 5 0 9 -4 9 -8z m550 -7 c0 -8 -4 -15 -10 -15 -5 0 -10 7 -10 15 0 8 5 15
10 15 6 0 10 -7 10 -15z m48 0 c-4 -11 -28 -16 -28 -6 0 12 13 22 23 18 5 -1
7 -7 5 -12z m48 -12 c-10 -10 -19 5 -10 18 6 11 8 11 12 0 2 -7 1 -15 -2 -18z
m1974 17 c0 -5 -4 -10 -10 -10 -5 0 -10 5 -10 10 0 6 5 10 10 10 6 0 10 -4 10
-10z m242 3 c-6 -2 -9 -10 -6 -15 4 -7 2 -8 -4 -4 -18 11 -14 26 6 25 10 0 12
-3 4 -6z m258 3 c0 -2 -7 -6 -15 -10 -8 -3 -15 -1 -15 4 0 6 7 10 15 10 8 0
15 -2 15 -4z m-2660 -17 c0 -12 -19 -21 -30 -14 -6 4 -8 10 -6 14 7 10 36 10
36 0z m2354 -1 c-3 -4 -9 -8 -15 -8 -5 0 -9 4 -9 8 0 5 7 9 15 9 8 0 12 -4 9
-9z m-957 -4 c-3 -3 -12 -4 -19 -1 -8 3 -5 6 6 6 11 1 17 -2 13 -5z m-1947
-39 c0 -8 -7 -15 -15 -15 -8 0 -15 7 -15 15 0 8 7 15 15 15 8 0 15 -7 15 -15z
m640 11 c0 -3 -4 -8 -10 -11 -5 -3 -10 -1 -10 4 0 6 5 11 10 11 6 0 10 -2 10
-4z m110 -6 c0 -5 -7 -10 -15 -10 -8 0 -15 5 -15 10 0 6 7 10 15 10 8 0 15 -4
15 -10z m-810 -10 c0 -5 -7 -10 -15 -10 -8 0 -15 5 -15 10 0 6 7 10 15 10 8 0
15 -4 15 -10z m855 0 c3 -5 1 -10 -4 -10 -6 0 -11 5 -11 10 0 6 2 10 4 10 3 0
8 -4 11 -10z m2570 -10 c-3 -5 -10 -10 -16 -10 -5 0 -9 5 -9 10 0 6 7 10 16
10 8 0 12 -4 9 -10z m-3475 -35 c0 -8 -4 -15 -10 -15 -5 0 -10 7 -10 15 0 8 5
15 10 15 6 0 10 -7 10 -15z m44 0 c3 -8 1 -15 -4 -15 -6 0 -10 7 -10 15 0 8 2
15 4 15 2 0 6 -7 10 -15z m1586 -62 l0 -53 -102 0 -103 0 3 -60 4 -60 59 0 59
0 0 -45 0 -45 -60 0 -59 0 -3 -67 -3 -68 -47 -3 -48 -3 0 228 0 228 150 0 150
0 0 -52z m-1120 -3 l0 -50 -45 0 -45 0 0 -175 0 -175 -45 0 -45 0 0 175 0 175
-75 0 -75 0 0 50 0 50 165 0 165 0 0 -50z m140 -5 l0 -55 100 0 100 0 0 -170
0 -170 -45 0 -45 0 0 125 0 125 -55 0 -55 0 0 -125 0 -125 -50 0 -50 0 0 225
0 225 50 0 50 0 0 -55z m1540 -20 l0 -45 45 0 45 0 0 -45 0 -45 -45 0 -45 0 0
-75 0 -75 45 0 45 0 0 -45 0 -45 -100 0 -100 0 0 120 0 120 -25 0 c-23 0 -25
4 -25 45 0 41 2 45 25 45 23 0 25 4 25 45 l0 45 55 0 55 0 0 -45z m1330 -25
c0 -5 -2 -10 -4 -10 -3 0 -8 5 -11 10 -3 6 -1 10 4 10 6 0 11 -4 11 -10z
m-1570 -175 l0 -175 -155 0 -155 0 0 170 0 170 45 0 45 0 0 -130 0 -130 60 0
60 0 0 135 0 135 50 0 50 0 0 -175z m510 45 l0 -130 60 0 60 0 0 125 0 125 45
0 45 0 0 -170 0 -170 -155 0 -155 0 0 175 0 175 50 0 50 0 0 -130z m-1210 34
c0 -82 -1 -88 -27 -110 -24 -21 -38 -24 -105 -24 -63 0 -78 -3 -78 -15 0 -12
18 -15 105 -15 l105 0 0 -45 0 -45 -150 0 -150 0 0 170 0 170 150 0 150 0 0
-86z m1760 41 l0 -45 -70 0 -70 0 0 -124 0 -124 -50 -4 -50 -3 0 173 0 172
120 0 120 0 0 -45z m400 -28 l0 -74 -39 -31 c-36 -29 -46 -32 -110 -32 -64 0
-71 -2 -71 -20 0 -19 7 -20 110 -20 l110 0 0 -45 0 -45 -160 0 -160 0 0 170 0
170 160 0 160 0 0 -73z m-3461 -139 c0 -16 -2 -18 -6 -8 -3 8 -11 18 -17 22
-7 5 -4 8 7 8 11 0 17 -7 16 -22z m-141 -46 c2 -7 -3 -12 -12 -12 -9 0 -16 7
-16 16 0 17 22 14 28 -4z m102 -42 c0 -5 -9 -10 -20 -10 -11 0 -20 5 -20 10 0
6 9 10 20 10 11 0 20 -4 20 -10z m40 0 c0 -5 -7 -10 -15 -10 -8 0 -15 5 -15
10 0 6 7 10 15 10 8 0 15 -4 15 -10z m-150 -65 c0 -8 -4 -15 -10 -15 -5 0 -10
7 -10 15 0 8 5 15 10 15 6 0 10 -7 10 -15z m77 -7 c-3 -8 -6 -5 -6 6 -1 11 2
17 5 13 3 -3 4 -12 1 -19z m63 12 c0 -5 -4 -10 -10 -10 -5 0 -10 5 -10 10 0 6
5 10 10 10 6 0 10 -4 10 -10z m3630 -61 c0 -28 -15 -23 -18 7 -1 14 2 23 8 19
6 -3 10 -15 10 -26z m-2730 -39 l0 -50 -95 0 -95 0 0 -40 0 -40 55 0 55 0 0
-45 0 -45 -55 0 -55 0 0 -105 0 -105 -50 0 -50 0 0 240 0 240 145 0 145 0 0
-50z m570 0 l0 -50 -105 0 -105 0 0 -70 0 -70 70 0 70 0 0 -45 0 -45 -70 0
-70 0 0 -75 0 -75 -50 0 -50 0 0 240 0 240 155 0 155 0 0 -50z m2160 -12 c0
-7 -5 -20 -10 -28 -8 -12 -10 -9 -10 13 0 15 5 27 10 27 6 0 10 -6 10 -12z
m60 -53 c0 -8 -9 -15 -20 -15 -13 0 -18 5 -14 15 4 8 12 15 20 15 8 0 14 -7
14 -15z m-110 -5 c0 -5 -2 -10 -4 -10 -3 0 -8 5 -11 10 -3 6 -1 10 4 10 6 0
11 -4 11 -10z m60 6 c0 -11 -19 -15 -25 -6 -3 5 1 10 9 10 9 0 16 -2 16 -4z
m100 -6 c0 -5 -4 -10 -9 -10 -6 0 -13 5 -16 10 -3 6 1 10 9 10 9 0 16 -4 16
-10z m50 0 c0 -5 -7 -10 -15 -10 -8 0 -15 5 -15 10 0 6 7 10 15 10 8 0 15 -4
15 -10z m-3290 -190 l0 -170 -145 0 -145 0 0 170 0 170 145 0 145 0 0 -170z
m1300 125 l0 -45 -80 0 -80 0 0 -125 0 -125 -45 0 -45 0 0 170 0 170 125 0
125 0 0 -45z m360 -125 l0 -170 -145 0 -145 0 0 110 0 110 60 0 c41 0 74 -7
100 -20 22 -11 42 -20 45 -20 3 0 5 16 5 35 l0 35 -105 0 -105 0 0 45 0 45
145 0 145 0 0 -170z m410 0 l0 -170 -50 0 -50 0 0 125 0 125 -55 0 -55 0 0
-125 0 -125 -45 0 -45 0 0 170 0 170 150 0 150 0 0 -170z m380 125 l0 -45
-100 0 -100 0 0 -80 0 -80 100 0 100 0 0 -45 0 -45 -145 0 -145 0 0 170 0 170
145 0 145 0 0 -45z m400 -19 l0 -63 -59 -42 c-53 -36 -66 -41 -116 -41 -48 0
-56 -2 -53 -17 3 -16 18 -18 116 -21 l112 -3 0 -44 0 -45 -160 0 -160 0 0 170
0 170 160 0 160 0 0 -64z m-3390 40 c0 -3 -4 -8 -10 -11 -5 -3 -10 -1 -10 4 0
6 5 11 10 11 6 0 10 -2 10 -4z m3670 0 c0 -3 -4 -8 -10 -11 -5 -3 -10 -1 -10
4 0 6 5 11 10 11 6 0 10 -2 10 -4z m-3623 -61 c0 -8 -4 -12 -9 -9 -4 3 -8 9
-8 15 0 5 4 9 8 9 5 0 9 -7 9 -15z m-47 -55 c0 -5 -4 -10 -10 -10 -5 0 -10 5
-10 10 0 6 5 10 10 10 6 0 10 -4 10 -10z m50 0 c0 -5 -7 -10 -15 -10 -8 0 -15
5 -15 10 0 6 7 10 15 10 8 0 15 -4 15 -10z m0 -50 c0 -5 -4 -10 -10 -10 -5 0
-10 5 -10 10 0 6 5 10 10 10 6 0 10 -4 10 -10z m3514 -115 c8 -31 32 -33 39
-3 5 18 8 19 21 9 13 -11 17 -11 22 2 10 27 32 7 32 -29 l0 -34 -59 0 c-51 0
-59 -2 -59 -19 0 -15 9 -20 41 -23 22 -2 42 -1 45 3 7 12 44 -3 44 -18 0 -11
-9 -14 -35 -11 -23 3 -35 0 -35 -8 0 -20 21 -28 31 -13 6 10 9 11 9 2 0 -7 7
-13 17 -13 9 0 13 -3 9 -7 -11 -11 -156 -12 -156 -1 0 15 25 19 51 9 21 -7 25
-6 25 10 0 15 -8 19 -31 19 -17 0 -36 5 -43 12 -9 9 -12 9 -12 0 0 -7 -4 -12
-10 -12 -5 0 -10 7 -10 15 0 9 9 15 25 15 18 0 25 5 25 20 0 11 -4 20 -10 20
-6 0 -6 10 1 27 5 14 8 32 5 40 -3 7 -2 13 3 13 5 0 12 -11 15 -25z m-3414
-100 c0 -16 -6 -25 -15 -25 -9 0 -15 9 -15 25 0 16 6 25 15 25 9 0 15 -9 15
-25z m-50 -16 c0 -5 -7 -9 -15 -9 -15 0 -20 12 -9 23 8 8 24 -1 24 -14z m2750
-4 c0 -8 -4 -15 -10 -15 -5 0 -10 7 -10 15 0 8 5 15 10 15 6 0 10 -7 10 -15z
m-2340 -45 c0 -11 -6 -20 -13 -20 -19 0 -27 10 -20 26 8 21 33 17 33 -6z m46
9 c10 -17 -13 -36 -27 -22 -12 12 -4 33 11 33 5 0 12 -5 16 -11z m44 -9 c0
-11 -4 -20 -10 -20 -5 0 -10 9 -10 20 0 11 5 20 10 20 6 0 10 -9 10 -20z m58
2 c2 -7 -6 -12 -17 -12 -21 0 -27 11 -14 24 9 9 26 2 31 -12z m92 3 c0 -8 -7
-15 -15 -15 -9 0 -12 6 -9 15 4 8 10 15 15 15 5 0 9 -7 9 -15z m150 0 c0 -8
-7 -15 -15 -15 -26 0 -18 20 13 29 1 1 2 -6 2 -14z m47 -11 c-9 -9 -28 6 -21
18 4 6 10 6 17 -1 6 -6 8 -13 4 -17z m53 11 c0 -8 -7 -15 -15 -15 -8 0 -15 7
-15 15 0 8 7 15 15 15 8 0 15 -7 15 -15z m200 -5 c0 -11 -7 -20 -15 -20 -15 0
-21 21 -8 33 12 13 23 7 23 -13z m1237 5 c0 -8 -4 -15 -9 -15 -10 0 -11 14 -1
23 9 10 10 9 10 -8z m410 -7 c-3 -8 -6 -5 -6 6 -1 11 2 17 5 13 3 -3 4 -12 1
-19z m673 2 c0 -13 -5 -18 -15 -14 -16 7 -19 17 -8 27 12 13 23 7 23 -13z
m-3370 2 c0 -5 -7 -9 -15 -9 -8 0 -15 4 -15 9 0 4 7 8 15 8 8 0 15 -4 15 -8z
m60 -2 c0 -5 -7 -10 -16 -10 -8 0 -12 5 -9 10 3 6 10 10 16 10 5 0 9 -4 9 -10z
m100 0 c0 -5 -7 -10 -15 -10 -8 0 -15 5 -15 10 0 6 7 10 15 10 8 0 15 -4 15
-10z m90 0 c0 -5 -5 -10 -11 -10 -5 0 -7 5 -4 10 3 6 8 10 11 10 2 0 4 -4 4
-10z m55 0 c3 -5 -1 -10 -9 -10 -9 0 -16 5 -16 10 0 6 4 10 9 10 6 0 13 -4 16
-10z m245 0 c0 -5 -7 -10 -15 -10 -8 0 -15 5 -15 10 0 6 7 10 15 10 8 0 15 -4
15 -10z m100 0 c0 -5 -7 -10 -15 -10 -8 0 -15 5 -15 10 0 6 7 10 15 10 8 0 15
-4 15 -10z m50 0 c0 -5 -4 -10 -10 -10 -5 0 -10 5 -10 10 0 6 5 10 10 10 6 0
10 -4 10 -10z m1647 4 c-3 -3 -12 -4 -19 -1 -8 3 -5 6 6 6 11 1 17 -2 13 -5z
m313 -4 c0 -5 -7 -7 -15 -4 -8 4 -15 8 -15 10 0 2 7 4 15 4 8 0 15 -4 15 -10z
m200 0 c0 -5 -4 -10 -10 -10 -5 0 -10 5 -10 10 0 6 5 10 10 10 6 0 10 -4 10
-10z m-2600 -55 c0 -8 -9 -15 -20 -15 -11 0 -20 7 -20 15 0 8 9 15 20 15 11 0
20 -7 20 -15z m287 0 c0 -8 -4 -15 -9 -15 -10 0 -11 14 -1 23 9 10 10 9 10 -8z
m90 -7 c-3 -8 -6 -5 -6 6 -1 11 2 17 5 13 3 -3 4 -12 1 -19z m113 6 c0 -9 -5
-14 -12 -12 -18 6 -21 28 -4 28 9 0 16 -7 16 -16z m55 6 c3 -6 -1 -13 -10 -16
-19 -8 -30 0 -20 15 8 14 22 14 30 1z m41 -17 c-10 -10 -19 5 -10 18 6 11 8
11 12 0 2 -7 1 -15 -2 -18z m54 18 c0 -6 -4 -13 -10 -16 -5 -3 -10 1 -10 9 0
9 5 16 10 16 6 0 10 -4 10 -9z m127 -13 c-3 -8 -6 -5 -6 6 -1 11 2 17 5 13 3
-3 4 -12 1 -19z m20 0 c-3 -8 -6 -5 -6 6 -1 11 2 17 5 13 3 -3 4 -12 1 -19z
m1163 7 c0 -8 -7 -15 -15 -15 -8 0 -15 7 -15 15 0 8 7 15 15 15 8 0 15 -7 15
-15z m41 -8 c-13 -13 -26 -3 -16 12 3 6 11 8 17 5 6 -4 6 -10 -1 -17z m109 8
c0 -8 -4 -15 -9 -15 -13 0 -22 16 -14 24 11 11 23 6 23 -9z m50 -1 c0 -17 -22
-14 -28 4 -2 7 3 12 12 12 9 0 16 -7 16 -16z m44 1 c-4 -8 -8 -15 -10 -15 -2
0 -4 7 -4 15 0 8 4 15 10 15 5 0 7 -7 4 -15z m350 0 c-4 -8 -8 -15 -10 -15 -2
0 -4 7 -4 15 0 8 4 15 10 15 5 0 7 -7 4 -15z m59 8 c-7 -2 -19 -2 -25 0 -7 3
-2 5 12 5 14 0 19 -2 13 -5z m47 -15 c0 -12 -3 -18 -7 -14 -11 10 -12 36 -2
36 5 0 9 -10 9 -22z m50 15 c-1 -18 -18 -35 -24 -24 -4 6 -4 16 -1 21 7 12 25
13 25 3z m249 -22 c-15 -5 -22 6 -14 19 6 9 10 9 16 -1 5 -8 4 -15 -2 -18z
m-2849 9 c0 -5 -4 -10 -10 -10 -5 0 -10 5 -10 10 0 6 5 10 10 10 6 0 10 -4 10
-10z m40 0 c0 -5 -4 -10 -10 -10 -5 0 -10 5 -10 10 0 6 5 10 10 10 6 0 10 -4
10 -10z m50 0 c0 -5 -4 -10 -10 -10 -5 0 -10 5 -10 10 0 6 5 10 10 10 6 0 10
-4 10 -10z m50 0 c0 -5 -4 -10 -10 -10 -5 0 -10 5 -10 10 0 6 5 10 10 10 6 0
10 -4 10 -10z m1810 0 c0 -5 -4 -10 -9 -10 -6 0 -13 5 -16 10 -3 6 1 10 9 10
9 0 16 -4 16 -10z m295 0 c3 -5 1 -10 -4 -10 -6 0 -11 5 -11 10 0 6 2 10 4 10
3 0 8 -4 11 -10z m565 0 c0 -5 -2 -10 -4 -10 -3 0 -8 5 -11 10 -3 6 -1 10 4
10 6 0 11 -4 11 -10z m100 0 c0 -5 -7 -10 -15 -10 -8 0 -15 5 -15 10 0 6 7 10
15 10 8 0 15 -4 15 -10z m-2820 -55 c0 -8 -4 -15 -10 -15 -5 0 -10 7 -10 15 0
8 5 15 10 15 6 0 10 -7 10 -15z m45 6 c3 -5 1 -12 -5 -16 -5 -3 -10 1 -10 9 0
18 6 21 15 7z m55 -6 c0 -8 -4 -15 -10 -15 -5 0 -10 7 -10 15 0 8 5 15 10 15
6 0 10 -7 10 -15z m498 3 c-6 -18 -28 -21 -28 -4 0 9 7 16 16 16 9 0 14 -5 12
-12z m60 0 c-7 -19 -38 -22 -38 -4 0 10 9 16 21 16 12 0 19 -5 17 -12z m42 -4
c0 -9 -5 -14 -12 -12 -18 6 -21 28 -4 28 9 0 16 -7 16 -16z m50 6 c0 -5 -7
-10 -15 -10 -8 0 -15 5 -15 10 0 6 7 10 15 10 8 0 15 -4 15 -10z m964 -5 c-4
-8 -10 -15 -15 -15 -5 0 -9 7 -9 15 0 8 7 15 15 15 9 0 12 -6 9 -15z m46 -15
c0 -23 4 -30 20 -30 16 0 20 7 20 30 0 26 3 30 29 30 26 0 29 -3 33 -40 4 -43
-2 -46 -72 -42 -13 1 -27 -4 -31 -10 -4 -6 -12 -7 -20 -2 -8 5 -23 9 -34 9
-11 0 -20 7 -20 15 0 11 8 14 28 12 28 -4 29 -2 22 27 -5 24 -3 31 9 31 11 0
16 -9 16 -30z m150 15 c0 -8 -4 -15 -10 -15 -5 0 -10 7 -10 15 0 8 5 15 10 15
6 0 10 -7 10 -15z m-1312 -53 c2 -7 -3 -12 -12 -12 -9 0 -16 7 -16 16 0 17 22
14 28 -4z m56 3 c4 -10 -1 -15 -14 -15 -20 0 -26 11 -13 23 10 11 20 8 27 -8z
m43 -2 c0 -7 -6 -13 -14 -13 -7 0 -13 6 -13 13 0 8 6 14 13 14 8 0 14 -6 14
-14z m53 -3 c0 -5 -4 -10 -10 -10 -5 0 -10 5 -10 10 0 6 5 10 10 10 6 0 10 -4
10 -10z m55 0 c-3 -5 -13 -10 -21 -10 -8 0 -14 5 -14 10 0 6 9 10 21 10 11 0
17 -4 14 -10z m45 0 c0 -5 -4 -10 -9 -10 -6 0 -13 5 -16 10 -3 6 1 10 9 10 9
0 16 -4 16 -10z m530 -216 l0 -214 -125 0 -125 0 0 218 0 217 125 -3 125 -3 0
-215z m280 210 c0 -9 -5 -14 -12 -12 -18 6 -21 28 -4 28 9 0 16 -7 16 -16z
m-1003 -51 c3 -7 -7 -11 -25 -11 -16 1 -34 -2 -40 -6 -13 -8 -26 10 -17 23 8
13 78 8 82 -6z m53 1 c0 -9 -7 -14 -17 -12 -25 5 -28 28 -4 28 12 0 21 -6 21
-16z m44 1 c-4 -8 -10 -15 -15 -15 -5 0 -9 7 -9 15 0 8 7 15 15 15 9 0 12 -6
9 -15z m56 0 c0 -8 -7 -15 -15 -15 -8 0 -15 7 -15 15 0 8 7 15 15 15 8 0 15
-7 15 -15z m48 3 c-7 -19 -38 -22 -38 -4 0 10 9 16 21 16 12 0 19 -5 17 -12z
m915 0 c4 -10 8 -9 16 2 14 20 29 3 32 -35 3 -41 -10 -68 -25 -55 -7 5 -22 8
-34 5 -17 -3 -22 1 -22 16 0 16 6 19 27 17 20 -2 28 2 31 15 3 16 -1 18 -27
14 -26 -4 -31 -2 -31 14 0 21 25 26 33 7z m105 6 c35 -10 27 -32 -10 -28 -36
5 -42 9 -33 23 7 13 12 13 43 5z m-223 -14 c3 -5 1 -10 -4 -10 -6 0 -11 5 -11
10 0 6 2 10 4 10 3 0 8 -4 11 -10z m65 0 c0 -5 -7 -10 -15 -10 -8 0 -15 5 -15
10 0 6 7 10 15 10 8 0 15 -4 15 -10z m-1060 -60 c0 -11 -4 -20 -10 -20 -5 0
-10 9 -10 20 0 11 5 20 10 20 6 0 10 -9 10 -20z m90 5 c0 -8 -6 -15 -12 -15
-7 0 -23 -3 -35 -6 -19 -5 -23 -2 -23 15 0 17 6 21 35 21 24 0 35 -5 35 -15z
m50 0 c0 -8 -4 -15 -10 -15 -5 0 -10 7 -10 15 0 8 5 15 10 15 6 0 10 -7 10
-15z m60 0 c0 -8 -7 -15 -15 -15 -8 0 -15 7 -15 15 0 8 7 15 15 15 8 0 15 -7
15 -15z m855 -5 c0 -7 -6 -15 -12 -17 -8 -3 -13 4 -13 17 0 13 5 20 13 18 6
-3 12 -11 12 -18z m155 5 c0 -8 -7 -15 -15 -15 -8 0 -15 7 -15 15 0 8 7 15 15
15 8 0 15 -7 15 -15z m-1310 -11 c0 -9 -5 -14 -12 -12 -18 6 -21 28 -4 28 9 0
16 -7 16 -16z m48 5 c-2 -6 -8 -10 -13 -10 -5 0 -11 4 -13 10 -2 6 4 11 13 11
9 0 15 -5 13 -11z m1052 -5 c0 -8 -4 -12 -10 -9 -5 3 -10 10 -10 16 0 5 5 9
10 9 6 0 10 -7 10 -16z m160 -60 c0 -17 -12 -18 -28 -2 -8 8 -15 8 -25 -1 -11
-9 -17 -8 -26 3 -10 12 -6 15 26 18 45 4 53 1 53 -18z m-1060 1 c0 -8 -4 -15
-10 -15 -5 0 -10 7 -10 15 0 8 5 15 10 15 6 0 10 -7 10 -15z m50 0 c0 -8 -7
-15 -15 -15 -8 0 -15 7 -15 15 0 8 7 15 15 15 8 0 15 -7 15 -15z m50 0 c0 -8
-4 -15 -9 -15 -5 0 -11 7 -15 15 -3 9 0 15 9 15 8 0 15 -7 15 -15z m810 11 c0
-3 -4 -8 -10 -11 -5 -3 -10 -1 -10 4 0 6 5 11 10 11 6 0 10 -2 10 -4z m50 -5
c0 -12 -20 -25 -27 -18 -7 7 6 27 18 27 5 0 9 -4 9 -9z m0 -61 c0 -5 -7 -10
-15 -10 -8 0 -15 5 -15 10 0 6 7 10 15 10 8 0 15 -4 15 -10z m-560 -253 c0
-30 6 -36 31 -30 16 4 20 12 16 29 -4 22 -1 24 39 24 24 0 44 -4 44 -10 0 -5
-9 -10 -20 -10 -11 0 -20 -7 -20 -15 0 -9 9 -15 25 -15 16 0 25 -6 25 -16 0
-14 -11 -16 -86 -12 -90 5 -104 12 -104 56 0 17 6 22 25 22 20 0 25 -5 25 -23z
m212 -12 c-3 -26 -9 -35 -23 -35 -15 0 -19 7 -19 35 0 30 3 35 23 35 20 0 23
-4 19 -35z m-357 -25 c-3 -5 -10 -10 -16 -10 -5 0 -9 5 -9 10 0 6 7 10 16 10
8 0 12 -4 9 -10z m45 0 c0 -5 -4 -10 -10 -10 -5 0 -10 5 -10 10 0 6 5 10 10
10 6 0 10 -4 10 -10z m405 0 c3 -5 -1 -10 -10 -10 -9 0 -13 5 -10 10 3 6 8 10
10 10 2 0 7 -4 10 -10z m-50 -10 c-3 -5 -10 -10 -16 -10 -5 0 -9 5 -9 10 0 6
7 10 16 10 8 0 12 -4 9 -10z m-225 -55 c0 -8 -7 -15 -15 -15 -8 0 -15 7 -15
15 0 8 7 15 15 15 8 0 15 -7 15 -15z m54 0 c-4 -8 -10 -15 -15 -15 -5 0 -9 7
-9 15 0 8 7 15 15 15 9 0 12 -6 9 -15z m41 5 c3 -5 -1 -10 -9 -10 -9 0 -16 5
-16 10 0 6 4 10 9 10 6 0 13 -4 16 -10z"/>
<path d="M2230 2845 c0 -8 7 -15 15 -15 8 0 15 7 15 15 0 8 -7 15 -15 15 -8 0
-15 -7 -15 -15z"/>
<path d="M2283 2788 c-1 -10 3 -18 9 -16 18 6 21 25 5 31 -8 3 -13 -3 -14 -15z"/>
<path d="M2230 2785 c0 -8 7 -15 15 -15 8 0 15 7 15 15 0 8 -7 15 -15 15 -8 0
-15 -7 -15 -15z"/>
<path d="M1580 2270 c0 -18 7 -20 60 -20 53 0 60 2 60 20 0 18 -7 20 -60 20
-53 0 -60 -2 -60 -20z"/>
<path d="M3730 2270 c0 -18 7 -20 60 -20 53 0 60 2 60 20 0 18 -7 20 -60 20
-53 0 -60 -2 -60 -20z"/>
<path d="M780 1660 l0 -80 55 0 55 0 0 80 0 80 -55 0 -55 0 0 -80z"/>
<path d="M2442 1603 c3 -27 6 -28 61 -31 l57 -3 0 31 0 30 -61 0 c-60 0 -60 0
-57 -27z"/>
<path d="M3602 1723 c3 -15 14 -18 63 -18 49 0 60 3 63 18 3 15 -5 17 -63 17
-58 0 -66 -2 -63 -17z"/>
<path d="M2440 3701 l0 -28 88 -2 c48 -1 89 -6 90 -12 2 -5 16 -8 30 -8 24 2
24 2 5 6 -18 3 -23 11 -23 34 0 16 -4 29 -10 29 -5 0 -10 -7 -10 -15 0 -21
-38 -19 -43 3 -4 15 -5 15 -6 -2 -1 -14 -6 -17 -23 -12 -13 3 -34 6 -47 6 -16
0 -21 4 -17 15 4 10 -1 15 -14 15 -15 0 -20 -7 -20 -29z"/>
<path d="M1820 3670 c0 -5 9 -10 20 -10 13 0 20 -7 20 -20 0 -15 7 -20 25 -20
18 0 25 5 25 20 0 18 7 20 85 20 50 0 85 4 85 10 0 6 -35 10 -86 10 -77 0 -86
-2 -91 -20 -3 -11 -11 -20 -18 -20 -7 0 -15 9 -18 20 -5 20 -47 29 -47 10z"/>
<path d="M1150 3590 c0 -5 9 -10 21 -10 11 0 17 -4 14 -10 -3 -5 0 -10 8 -10
10 0 13 7 10 20 -5 21 -53 30 -53 10z"/>
<path d="M1813 3563 c9 -2 25 -2 35 0 9 3 1 5 -18 5 -19 0 -27 -2 -17 -5z"/>
<path d="M2008 3563 c7 -3 16 -2 19 1 4 3 -2 6 -13 5 -11 0 -14 -3 -6 -6z"/>
<path d="M1760 3530 c0 -5 5 -10 10 -10 6 0 10 5 10 10 0 6 -4 10 -10 10 -5 0
-10 -4 -10 -10z"/>
<path d="M1186 3480 c3 -35 1 -40 -21 -46 -28 -7 -24 -24 6 -24 12 0 19 -7 19
-19 0 -13 8 -21 23 -23 14 -2 23 -11 25 -25 3 -17 -3 -22 -25 -26 -27 -4 -27
-4 5 -6 l32 -1 0 105 0 105 -34 0 c-33 0 -33 -1 -30 -40z"/>
<path d="M2668 3513 c12 -2 30 -2 40 0 9 3 -1 5 -23 4 -22 0 -30 -2 -17 -4z"/>
<path d="M2810 3509 c0 -5 5 -7 10 -4 6 3 10 8 10 11 0 2 -4 4 -10 4 -5 0 -10
-5 -10 -11z"/>
<path d="M1648 3473 c12 -2 32 -2 45 0 12 2 2 4 -23 4 -25 0 -35 -2 -22 -4z"/>
<path d="M1400 3410 c0 -15 -7 -20 -25 -20 -14 0 -25 -4 -25 -10 0 -5 12 -10
26 -10 21 0 25 -4 22 -22 -2 -15 -11 -24 -25 -26 -20 -3 -23 -9 -23 -46 0 -23
-5 -47 -11 -53 -16 -16 -1 -35 21 -28 14 5 18 1 17 -15 -1 -14 -6 -18 -19 -14
-10 3 -18 0 -18 -6 0 -6 -15 -10 -37 -9 -21 1 -102 1 -180 0 -137 -1 -143 -2
-143 -22 0 -17 -5 -20 -32 -17 -32 3 -33 4 -34 53 l-1 50 -44 1 c-39 1 -40 1
-6 -3 31 -4 37 -8 37 -29 0 -23 -3 -24 -65 -24 -63 0 -65 -1 -65 -25 0 -24 -3
-25 -60 -25 -53 0 -60 2 -60 19 0 11 -4 23 -10 26 -6 4 -10 -10 -10 -34 l0
-41 485 0 c424 0 485 2 485 15 0 11 -12 15 -50 15 -38 0 -50 4 -50 15 0 9 -9
15 -25 15 -22 0 -25 4 -25 40 0 29 -4 40 -15 40 -12 0 -15 18 -15 105 0 63 -4
105 -10 105 -5 0 -10 -9 -10 -20z m-20 -180 c0 -5 -2 -10 -4 -10 -3 0 -8 5
-11 10 -3 6 -1 10 4 10 6 0 11 -4 11 -10z m54 -55 c3 -9 0 -15 -9 -15 -16 0
-27 14 -18 24 10 10 21 7 27 -9z"/>
<path d="M882 3373 c-2 -49 -4 -53 -27 -53 -14 0 -25 -4 -25 -10 0 -5 7 -10
15 -10 20 0 19 -20 -2 -36 -16 -12 -15 -13 13 -14 28 0 31 3 26 25 -4 24 -3
25 52 25 42 0 56 -4 56 -14 0 -9 -13 -16 -32 -18 -21 -3 -11 -5 30 -8 l62 -5
0 83 c0 48 -4 82 -10 82 -5 0 -10 -7 -10 -15 0 -9 -9 -15 -25 -15 -16 0 -25
-6 -25 -15 0 -9 9 -15 25 -15 18 0 25 -5 25 -20 0 -18 -7 -20 -69 -20 l-70 0
-4 53 -3 52 -2 -52z"/>
<path d="M2880 3370 c0 -11 7 -20 15 -20 8 0 15 9 15 20 0 11 -7 20 -15 20 -8
0 -15 -9 -15 -20z"/>
<path d="M838 3373 c6 -2 18 -2 25 0 6 3 1 5 -13 5 -14 0 -19 -2 -12 -5z"/>
<path d="M2980 3331 c0 -12 5 -21 10 -21 6 0 10 6 10 14 0 8 -4 18 -10 21 -5
3 -10 -3 -10 -14z"/>
<path d="M750 3300 c0 -15 -7 -20 -25 -20 -24 0 -25 -3 -25 -55 0 -54 0 -55
29 -55 l29 0 4 75 c2 41 0 75 -4 75 -5 0 -8 -9 -8 -20z"/>
<path d="M1145 3260 c-4 -6 15 -10 49 -10 31 0 56 5 56 10 0 6 -22 10 -49 10
-28 0 -53 -4 -56 -10z"/>
<path d="M1298 3253 c7 -3 16 -2 19 1 4 3 -2 6 -13 5 -11 0 -14 -3 -6 -6z"/>
<path d="M2930 3250 c0 -5 7 -10 15 -10 8 0 15 5 15 10 0 6 -7 10 -15 10 -8 0
-15 -4 -15 -10z"/>
<path d="M3113 3253 c9 -2 25 -2 35 0 9 3 1 5 -18 5 -19 0 -27 -2 -17 -5z"/>
<path d="M1030 3210 c0 -6 35 -10 90 -9 50 1 90 5 90 10 0 5 -40 9 -90 9 -54
0 -90 -4 -90 -10z"/>
<path d="M1240 3213 c0 -5 16 -8 35 -9 18 0 32 3 29 8 -6 10 -64 11 -64 1z"/>
<path d="M2888 3213 c7 -3 16 -2 19 1 4 3 -2 6 -13 5 -11 0 -14 -3 -6 -6z"/>
<path d="M546 3123 c-12 -12 -6 -43 9 -43 8 0 15 9 15 19 0 21 -13 34 -24 24z"/>
<path d="M990 2890 c0 -5 7 -10 15 -10 8 0 15 5 15 10 0 6 -7 10 -15 10 -8 0
-15 -4 -15 -10z"/>
<path d="M1040 2890 c0 -5 5 -10 10 -10 6 0 10 5 10 10 0 6 -4 10 -10 10 -5 0
-10 -4 -10 -10z"/>
<path d="M3355 2890 c3 -5 10 -10 16 -10 5 0 9 5 9 10 0 6 -7 10 -16 10 -8 0
-12 -4 -9 -10z"/>
<path d="M3405 2890 c4 -6 11 -8 16 -5 14 9 11 15 -7 15 -8 0 -12 -5 -9 -10z"/>
<path d="M3660 2890 c0 -5 5 -10 10 -10 6 0 10 5 10 10 0 6 -4 10 -10 10 -5 0
-10 -4 -10 -10z"/>
<path d="M3705 2890 c3 -5 10 -10 16 -10 5 0 9 5 9 10 0 6 -7 10 -16 10 -8 0
-12 -4 -9 -10z"/>
<path d="M3755 2890 c3 -5 10 -10 16 -10 5 0 9 5 9 10 0 6 -7 10 -16 10 -8 0
-12 -4 -9 -10z"/>
<path d="M3760 2845 c-10 -12 -10 -15 4 -15 9 0 16 7 16 15 0 8 -2 15 -4 15
-2 0 -9 -7 -16 -15z"/>
<path d="M990 2840 c0 -5 7 -10 15 -10 8 0 15 5 15 10 0 6 -7 10 -15 10 -8 0
-15 -4 -15 -10z"/>
<path d="M1040 2840 c0 -5 5 -10 10 -10 6 0 10 5 10 10 0 6 -4 10 -10 10 -5 0
-10 -4 -10 -10z"/>
<path d="M3352 2838 c6 -18 28 -21 28 -4 0 9 -7 16 -16 16 -9 0 -14 -5 -12
-12z"/>
<path d="M3660 2840 c0 -5 5 -10 10 -10 6 0 10 5 10 10 0 6 -4 10 -10 10 -5 0
-10 -4 -10 -10z"/>
<path d="M3700 2840 c0 -5 7 -10 15 -10 8 0 15 5 15 10 0 6 -7 10 -15 10 -8 0
-15 -4 -15 -10z"/>
<path d="M1885 2800 c-3 -5 1 -10 9 -10 9 0 16 5 16 10 0 6 -4 10 -9 10 -6 0
-13 -4 -16 -10z"/>
<path d="M2956 2802 c-3 -6 -1 -14 5 -17 15 -10 25 3 12 16 -7 7 -13 7 -17 1z"/>
<path d="M3455 2800 c-3 -5 1 -10 10 -10 9 0 13 5 10 10 -3 6 -8 10 -10 10 -2
0 -7 -4 -10 -10z"/>
<path d="M3505 2800 c-3 -5 -1 -10 4 -10 6 0 11 5 11 10 0 6 -2 10 -4 10 -3 0
-8 -4 -11 -10z"/>
<path d="M3760 2800 c-13 -8 -12 -10 3 -10 9 0 17 5 17 10 0 12 -1 12 -20 0z"/>
<path d="M692 2743 c5 -25 28 -28 28 -4 0 12 -6 21 -16 21 -9 0 -14 -7 -12
-17z"/>
<path d="M1140 2746 c0 -9 7 -16 16 -16 9 0 14 5 12 12 -6 18 -28 21 -28 4z"/>
<path d="M1940 2745 c0 -8 5 -15 10 -15 6 0 10 7 10 15 0 8 -4 15 -10 15 -5 0
-10 -7 -10 -15z"/>
<path d="M2636 2753 c-11 -11 -6 -23 9 -23 8 0 15 4 15 9 0 13 -16 22 -24 14z"/>
<path d="M2950 2746 c0 -9 7 -16 16 -16 9 0 14 5 12 12 -6 18 -28 21 -28 4z"/>
<path d="M3350 2745 c0 -8 7 -15 15 -15 8 0 15 4 15 9 0 5 -7 11 -15 15 -9 3
-15 0 -15 -9z"/>
<path d="M3406 2753 c-11 -11 -6 -23 9 -23 8 0 15 4 15 9 0 13 -16 22 -24 14z"/>
<path d="M3457 2753 c-12 -11 -8 -23 8 -23 8 0 15 7 15 15 0 16 -12 20 -23 8z"/>
<path d="M3506 2751 c-4 -7 -5 -15 -2 -18 9 -9 19 4 14 18 -4 11 -6 11 -12 0z"/>
<path d="M3752 2744 c4 -21 22 -23 26 -1 2 10 -3 17 -13 17 -10 0 -15 -6 -13
-16z"/>
<path d="M3806 2753 c-11 -11 -6 -23 9 -23 8 0 15 4 15 9 0 13 -16 22 -24 14z"/>
<path d="M4067 2753 c-12 -11 -8 -23 8 -23 8 0 15 7 15 15 0 16 -12 20 -23 8z"/>
<path d="M4260 2746 c0 -9 7 -16 16 -16 9 0 14 5 12 12 -6 18 -28 21 -28 4z"/>
<path d="M1090 2740 c0 -5 5 -10 10 -10 6 0 10 5 10 10 0 6 -4 10 -10 10 -5 0
-10 -4 -10 -10z"/>
<path d="M1190 2740 c0 -5 5 -10 10 -10 6 0 10 5 10 10 0 6 -4 10 -10 10 -5 0
-10 -4 -10 -10z"/>
<path d="M1340 2740 c0 -5 5 -10 10 -10 6 0 10 5 10 10 0 6 -4 10 -10 10 -5 0
-10 -4 -10 -10z"/>
<path d="M1540 2740 c0 -5 5 -10 10 -10 6 0 10 5 10 10 0 6 -4 10 -10 10 -5 0
-10 -4 -10 -10z"/>
<path d="M1880 2740 c0 -5 7 -10 15 -10 8 0 15 5 15 10 0 6 -7 10 -15 10 -8 0
-15 -4 -15 -10z"/>
<path d="M2580 2740 c0 -5 5 -10 10 -10 6 0 10 5 10 10 0 6 -4 10 -10 10 -5 0
-10 -4 -10 -10z"/>
<path d="M2690 2740 c0 -5 5 -10 10 -10 6 0 10 5 10 10 0 6 -4 10 -10 10 -5 0
-10 -4 -10 -10z"/>
<path d="M3290 2740 c0 -5 7 -10 15 -10 8 0 15 5 15 10 0 6 -7 10 -15 10 -8 0
-15 -4 -15 -10z"/>
<path d="M3860 2740 c0 -5 7 -10 15 -10 8 0 15 5 15 10 0 6 -7 10 -15 10 -8 0
-15 -4 -15 -10z"/>
<path d="M3900 2740 c0 -5 7 -10 15 -10 8 0 15 5 15 10 0 6 -7 10 -15 10 -8 0
-15 -4 -15 -10z"/>
<path d="M4110 2740 c0 -5 7 -10 15 -10 8 0 15 5 15 10 0 6 -7 10 -15 10 -8 0
-15 -4 -15 -10z"/>
<path d="M4210 2740 c0 -5 7 -10 15 -10 8 0 15 5 15 10 0 6 -7 10 -15 10 -8 0
-15 -4 -15 -10z"/>
<path d="M4420 2740 c0 -5 7 -10 15 -10 8 0 15 5 15 10 0 6 -7 10 -15 10 -8 0
-15 -4 -15 -10z"/>
<path d="M1190 2695 c0 -8 5 -15 10 -15 6 0 10 7 10 15 0 8 -4 15 -10 15 -5 0
-10 -7 -10 -15z"/>
<path d="M2580 2696 c0 -9 5 -16 10 -16 6 0 10 4 10 9 0 6 -4 13 -10 16 -5 3
-10 -1 -10 -9z"/>
<path d="M2636 2703 c-11 -11 -6 -23 9 -23 8 0 15 4 15 9 0 13 -16 22 -24 14z"/>
<path d="M2690 2695 c0 -8 5 -15 10 -15 6 0 10 7 10 15 0 8 -4 15 -10 15 -5 0
-10 -7 -10 -15z"/>
<path d="M2950 2695 c0 -8 7 -15 15 -15 8 0 15 7 15 15 0 8 -7 15 -15 15 -8 0
-15 -7 -15 -15z"/>
<path d="M3352 2698 c6 -18 28 -21 28 -4 0 9 -7 16 -16 16 -9 0 -14 -5 -12
-12z"/>
<path d="M3410 2695 c0 -9 5 -15 11 -13 6 2 11 8 11 13 0 5 -5 11 -11 13 -6 2
-11 -4 -11 -13z"/>
<path d="M3450 2695 c0 -8 7 -15 15 -15 8 0 15 7 15 15 0 8 -7 15 -15 15 -8 0
-15 -7 -15 -15z"/>
<path d="M3510 2696 c0 -9 5 -16 10 -16 6 0 10 4 10 9 0 6 -4 13 -10 16 -5 3
-10 -1 -10 -9z"/>
<path d="M3550 2695 c0 -8 7 -15 15 -15 8 0 15 7 15 15 0 8 -7 15 -15 15 -8 0
-15 -7 -15 -15z"/>
<path d="M4062 2694 c4 -21 22 -23 26 -1 2 10 -3 17 -13 17 -10 0 -15 -6 -13
-16z"/>
<path d="M4110 2695 c0 -8 7 -15 15 -15 8 0 15 7 15 15 0 8 -7 15 -15 15 -8 0
-15 -7 -15 -15z"/>
<path d="M4210 2695 c0 -8 7 -15 15 -15 8 0 15 7 15 15 0 8 -7 15 -15 15 -8 0
-15 -7 -15 -15z"/>
<path d="M4260 2701 c0 -5 -3 -17 -7 -26 -5 -16 -4 -16 15 1 12 9 19 21 16 26
-7 11 -24 10 -24 -1z"/>
<path d="M4310 2689 c0 -24 23 -21 28 4 2 10 -3 17 -12 17 -10 0 -16 -9 -16
-21z"/>
<path d="M4365 2701 c-8 -15 3 -31 21 -31 9 0 14 7 12 17 -4 20 -24 28 -33 14z"/>
<path d="M4417 2703 c-8 -7 11 -33 24 -33 5 0 9 9 9 20 0 19 -20 27 -33 13z"/>
<path d="M1295 2690 c-3 -5 -1 -10 4 -10 6 0 11 5 11 10 0 6 -2 10 -4 10 -3 0
-8 -4 -11 -10z"/>
<path d="M1340 2690 c0 -5 5 -10 10 -10 6 0 10 5 10 10 0 6 -4 10 -10 10 -5 0
-10 -4 -10 -10z"/>
<path d="M1495 2690 c-3 -5 -1 -10 4 -10 6 0 11 5 11 10 0 6 -2 10 -4 10 -3 0
-8 -4 -11 -10z"/>
<path d="M4057 2629 c-4 -15 -2 -19 10 -15 8 3 17 6 19 6 2 0 4 7 4 15 0 23
-27 18 -33 -6z"/>
<path d="M4110 2629 c0 -24 23 -21 28 4 2 10 -3 17 -12 17 -10 0 -16 -9 -16
-21z"/>
<path d="M4170 2635 c0 -8 5 -15 10 -15 6 0 10 7 10 15 0 8 -4 15 -10 15 -5 0
-10 -7 -10 -15z"/>
<path d="M4210 2635 c0 -18 25 -26 41 -12 11 10 11 9 1 -4 -6 -9 -8 -19 -4
-24 4 -4 -3 -5 -15 -2 -13 3 -23 1 -23 -4 0 -5 -10 -8 -22 -6 -15 1 -23 -3
-23 -13 0 -17 55 -23 133 -14 36 4 52 10 52 20 0 14 -3 15 -52 18 -29 1 -52
16 -25 16 10 0 17 8 17 19 0 15 -8 19 -40 19 -27 1 -40 -4 -40 -13z"/>
<path d="M4312 2634 c4 -21 22 -23 26 -1 2 10 -3 17 -13 17 -10 0 -15 -6 -13
-16z"/>
<path d="M4422 2633 c5 -25 28 -28 28 -4 0 12 -6 21 -16 21 -9 0 -14 -7 -12
-17z"/>
<path d="M4109 2590 c-1 -6 -1 -19 -1 -30 0 -49 3 -60 17 -60 8 0 19 9 24 19
9 16 8 18 -8 14 -10 -3 -22 0 -25 6 -4 6 0 11 8 11 20 0 21 36 1 44 -8 3 -15
1 -16 -4z"/>
<path d="M4422 2573 c5 -25 28 -28 28 -4 0 12 -6 21 -16 21 -9 0 -14 -7 -12
-17z"/>
<path d="M4188 2536 c-28 -21 -21 -34 16 -34 25 0 36 5 39 18 4 16 1 17 -19
10 -18 -7 -22 -6 -17 5 6 18 3 18 -19 1z"/>
<path d="M4310 2510 c0 -5 5 -10 10 -10 6 0 10 5 10 10 0 6 -4 10 -10 10 -5 0
-10 -4 -10 -10z"/>
<path d="M4365 2510 c3 -5 8 -10 11 -10 2 0 4 5 4 10 0 6 -5 10 -11 10 -5 0
-7 -4 -4 -10z"/>
<path d="M4400 2510 c0 -5 14 -10 30 -10 17 0 30 5 30 10 0 6 -13 10 -30 10
-16 0 -30 -4 -30 -10z"/>
<path d="M240 2480 c0 -5 9 -10 20 -10 11 0 20 5 20 10 0 6 -9 10 -20 10 -11
0 -20 -4 -20 -10z"/>
<path d="M446 2443 c-12 -12 -6 -33 9 -33 8 0 15 6 15 14 0 17 -14 28 -24 19z"/>
<path d="M200 2425 c0 -9 5 -15 11 -13 6 2 11 8 11 13 0 5 -5 11 -11 13 -6 2
-11 -4 -11 -13z"/>
<path d="M243 2428 c2 -7 10 -13 17 -13 7 0 15 6 18 13 2 7 -5 12 -18 12 -13
0 -20 -5 -17 -12z"/>
<path d="M300 2425 c0 -8 5 -15 10 -15 6 0 10 7 10 15 0 8 -4 15 -10 15 -5 0
-10 -7 -10 -15z"/>
<path d="M4110 2380 c0 -11 7 -20 15 -20 8 0 15 6 15 14 0 8 -7 16 -15 20 -10
4 -15 -1 -15 -14z"/>
<path d="M345 2379 c-10 -15 1 -23 20 -15 9 3 13 10 10 16 -8 13 -22 13 -30
-1z"/>
<path d="M442 2374 c4 -21 22 -23 26 -1 2 10 -3 17 -13 17 -10 0 -15 -6 -13
-16z"/>
<path d="M490 2375 c0 -8 7 -15 15 -15 8 0 15 7 15 15 0 8 -7 15 -15 15 -8 0
-15 -7 -15 -15z"/>
<path d="M4165 2381 c-3 -5 -1 -12 5 -16 12 -7 30 2 30 16 0 12 -27 12 -35 0z"/>
<path d="M4210 2375 c0 -8 7 -15 15 -15 8 0 15 7 15 15 0 8 -7 15 -15 15 -8 0
-15 -7 -15 -15z"/>
<path d="M4110 2320 c0 -13 5 -20 13 -17 6 2 12 10 12 17 0 7 -6 15 -12 18 -8
2 -13 -5 -13 -18z"/>
<path d="M4167 2333 c-12 -11 -8 -23 8 -23 8 0 15 7 15 15 0 16 -12 20 -23 8z"/>
<path d="M4210 2320 c0 -5 7 -10 15 -10 8 0 15 5 15 10 0 6 -7 10 -15 10 -8 0
-15 -4 -15 -10z"/>
<path d="M345 2310 c4 -6 11 -8 16 -5 14 9 11 15 -7 15 -8 0 -12 -5 -9 -10z"/>
<path d="M390 2266 c0 -9 7 -16 16 -16 9 0 14 5 12 12 -6 18 -28 21 -28 4z"/>
<path d="M440 2266 c0 -8 4 -17 8 -20 13 -8 35 11 28 23 -10 16 -36 14 -36 -3z"/>
<path d="M4110 2266 c0 -9 7 -16 16 -16 17 0 14 22 -4 28 -7 2 -12 -3 -12 -12z"/>
<path d="M150 2260 c0 -5 5 -10 10 -10 6 0 10 5 10 10 0 6 -4 10 -10 10 -5 0
-10 -4 -10 -10z"/>
<path d="M200 2260 c0 -5 5 -10 10 -10 6 0 10 5 10 10 0 6 -4 10 -10 10 -5 0
-10 -4 -10 -10z"/>
<path d="M240 2260 c0 -5 7 -10 15 -10 8 0 15 5 15 10 0 6 -7 10 -15 10 -8 0
-15 -4 -15 -10z"/>
<path d="M290 2260 c0 -5 7 -10 15 -10 8 0 15 5 15 10 0 6 -7 10 -15 10 -8 0
-15 -4 -15 -10z"/>
<path d="M342 2259 c2 -6 8 -10 13 -10 5 0 11 4 13 10 2 6 -4 11 -13 11 -9 0
-15 -5 -13 -11z"/>
<path d="M4060 2260 c0 -5 7 -10 15 -10 8 0 15 5 15 10 0 6 -7 10 -15 10 -8 0
-15 -4 -15 -10z"/>
<path d="M200 2210 c0 -5 5 -10 10 -10 6 0 10 5 10 10 0 6 -4 10 -10 10 -5 0
-10 -4 -10 -10z"/>
<path d="M250 2210 c0 -5 5 -10 10 -10 6 0 10 5 10 10 0 6 -4 10 -10 10 -5 0
-10 -4 -10 -10z"/>
<path d="M290 2210 c0 -5 7 -10 15 -10 8 0 15 5 15 10 0 6 -7 10 -15 10 -8 0
-15 -4 -15 -10z"/>
<path d="M345 2210 c-3 -5 1 -10 9 -10 9 0 16 5 16 10 0 6 -4 10 -9 10 -6 0
-13 -4 -16 -10z"/>
<path d="M4060 2204 c0 -9 5 -14 12 -12 18 6 21 28 4 28 -9 0 -16 -7 -16 -16z"/>
<path d="M4112 2209 c2 -6 8 -10 13 -10 5 0 11 4 13 10 2 6 -4 11 -13 11 -9 0
-15 -5 -13 -11z"/>
<path d="M4175 2210 c-3 -5 -1 -10 4 -10 6 0 11 5 11 10 0 6 -2 10 -4 10 -3 0
-8 -4 -11 -10z"/>
<path d="M4062 2154 c4 -21 22 -23 26 -1 2 10 -3 17 -13 17 -10 0 -15 -6 -13
-16z"/>
<path d="M4110 2150 c0 -5 7 -10 15 -10 8 0 15 5 15 10 0 6 -7 10 -15 10 -8 0
-15 -4 -15 -10z"/>
<path d="M4178 2143 c7 -3 16 -2 19 1 4 3 -2 6 -13 5 -11 0 -14 -3 -6 -6z"/>
<path d="M4110 2090 c0 -5 7 -10 15 -10 8 0 15 5 15 10 0 6 -7 10 -15 10 -8 0
-15 -4 -15 -10z"/>
<path d="M250 2050 c0 -5 5 -10 10 -10 6 0 10 5 10 10 0 6 -4 10 -10 10 -5 0
-10 -4 -10 -10z"/>
<path d="M4265 2040 c3 -5 10 -10 16 -10 5 0 9 5 9 10 0 6 -7 10 -16 10 -8 0
-12 -4 -9 -10z"/>
<path d="M245 1990 c3 -5 10 -10 16 -10 5 0 9 5 9 10 0 6 -7 10 -16 10 -8 0
-12 -4 -9 -10z"/>
<path d="M4266 1985 c4 -8 10 -12 15 -9 14 8 10 24 -6 24 -9 0 -12 -6 -9 -15z"/>
<path d="M4320 1990 c0 -5 5 -10 10 -10 6 0 10 5 10 10 0 6 -4 10 -10 10 -5 0
-10 -4 -10 -10z"/>
<path d="M397 1943 c-4 -3 -7 -12 -7 -20 0 -17 26 -17 33 1 8 21 -11 35 -26
19z"/>
<path d="M442 1933 c2 -10 10 -18 18 -18 22 0 18 29 -3 33 -14 3 -18 -1 -15
-15z"/>
<path d="M4260 1925 c0 -8 7 -15 15 -15 8 0 15 7 15 15 0 8 -7 15 -15 15 -8 0
-15 -7 -15 -15z"/>
<path d="M4310 1925 c0 -8 9 -15 20 -15 11 0 20 7 20 15 0 8 -9 15 -20 15 -11
0 -20 -7 -20 -15z"/>
<path d="M4365 1931 c-7 -12 12 -24 25 -16 11 7 4 25 -10 25 -5 0 -11 -4 -15
-9z"/>
<path d="M390 1880 c0 -23 25 -27 33 -6 7 16 -1 26 -20 26 -7 0 -13 -9 -13
-20z"/>
<path d="M4310 1875 c0 -8 7 -15 15 -15 8 0 15 7 15 15 0 8 -7 15 -15 15 -8 0
-15 -7 -15 -15z"/>
<path d="M4360 1875 c0 -8 9 -15 20 -15 11 0 20 7 20 15 0 8 -9 15 -20 15 -11
0 -20 -7 -20 -15z"/>
<path d="M4110 1720 c0 -11 7 -20 15 -20 8 0 15 9 15 20 0 11 -7 20 -15 20 -8
0 -15 -9 -15 -20z"/>
<path d="M4165 1719 c-4 -6 -4 -13 -1 -16 8 -8 36 5 36 17 0 13 -27 13 -35 -1z"/>
<path d="M4210 1715 c0 -8 7 -15 15 -15 8 0 15 7 15 15 0 8 -7 15 -15 15 -8 0
-15 -7 -15 -15z"/>
<path d="M4110 1666 c0 -15 24 -28 34 -19 7 7 -13 33 -25 33 -5 0 -9 -6 -9
-14z"/>
<path d="M340 1655 c0 -8 9 -15 20 -15 11 0 20 7 20 15 0 8 -9 15 -20 15 -11
0 -20 -7 -20 -15z"/>
<path d="M4160 1655 c0 -8 7 -15 15 -15 8 0 15 7 15 15 0 8 -7 15 -15 15 -8 0
-15 -7 -15 -15z"/>
<path d="M4210 1655 c0 -8 7 -15 15 -15 8 0 15 7 15 15 0 8 -7 15 -15 15 -8 0
-15 -7 -15 -15z"/>
<path d="M4160 1605 c0 -8 9 -15 20 -15 11 0 20 7 20 15 0 8 -9 15 -20 15 -11
0 -20 -7 -20 -15z"/>
<path d="M4212 1608 c6 -18 28 -21 28 -4 0 9 -7 16 -16 16 -9 0 -14 -5 -12
-12z"/>
<path d="M4310 1565 c0 -8 9 -15 20 -15 13 0 18 5 14 15 -4 8 -12 15 -20 15
-8 0 -14 -7 -14 -15z"/>
<path d="M4364 1569 c-9 -15 11 -33 30 -26 9 4 13 13 10 22 -7 17 -30 20 -40
4z"/>
<path d="M4427 1573 c-12 -11 -8 -23 8 -23 8 0 15 7 15 15 0 16 -12 20 -23 8z"/>
<path d="M4270 1555 c0 -8 5 -15 10 -15 6 0 10 7 10 15 0 8 -4 15 -10 15 -5 0
-10 -7 -10 -15z"/>
<path d="M200 1506 c0 -9 7 -16 16 -16 17 0 14 22 -4 28 -7 2 -12 -3 -12 -12z"/>
<path d="M250 1506 c0 -9 7 -16 16 -16 17 0 14 22 -4 28 -7 2 -12 -3 -12 -12z"/>
<path d="M300 1505 c0 -9 5 -15 11 -13 6 2 11 8 11 13 0 5 -5 11 -11 13 -6 2
-11 -4 -11 -13z"/>
<path d="M4307 1498 c-4 -12 -4 -24 -2 -27 3 -2 5 1 5 7 0 7 9 12 20 12 11 0
20 7 20 15 0 24 -37 18 -43 -7z"/>
<path d="M4362 1508 c7 -19 38 -22 38 -4 0 10 -9 16 -21 16 -12 0 -19 -5 -17
-12z"/>
<path d="M4420 1505 c0 -8 7 -15 15 -15 8 0 15 7 15 15 0 8 -7 15 -15 15 -8 0
-15 -7 -15 -15z"/>
<path d="M4376 1463 c-12 -12 -6 -33 9 -33 8 0 15 6 15 14 0 17 -14 28 -24 19z"/>
<path d="M4427 1463 c-13 -12 -7 -33 8 -33 8 0 15 9 15 20 0 20 -11 26 -23 13z"/>
<path d="M40 1439 c0 -24 23 -21 28 4 2 10 -3 17 -12 17 -10 0 -16 -9 -16 -21z"/>
<path d="M200 1445 c0 -8 5 -15 10 -15 6 0 10 7 10 15 0 8 -4 15 -10 15 -5 0
-10 -7 -10 -15z"/>
<path d="M350 1445 c0 -8 7 -15 15 -15 8 0 15 4 15 9 0 5 -7 11 -15 15 -9 3
-15 0 -15 -9z"/>
<path d="M396 1453 c-11 -11 -6 -23 9 -23 8 0 15 4 15 9 0 13 -16 22 -24 14z"/>
<path d="M450 1446 c0 -9 7 -16 16 -16 17 0 14 22 -4 28 -7 2 -12 -3 -12 -12z"/>
<path d="M250 1440 c0 -5 7 -10 15 -10 8 0 15 5 15 10 0 6 -7 10 -15 10 -8 0
-15 -4 -15 -10z"/>
<path d="M300 1440 c0 -5 5 -10 10 -10 6 0 10 5 10 10 0 6 -4 10 -10 10 -5 0
-10 -4 -10 -10z"/>
<path d="M40 1380 c0 -11 7 -20 15 -20 8 0 15 9 15 20 0 11 -7 20 -15 20 -8 0
-15 -9 -15 -20z"/>
<path d="M100 1385 c0 -8 5 -15 10 -15 6 0 10 7 10 15 0 8 -4 15 -10 15 -5 0
-10 -7 -10 -15z"/>
<path d="M150 1384 c0 -17 22 -14 28 4 2 7 -3 12 -12 12 -9 0 -16 -7 -16 -16z"/>
<path d="M200 1385 c0 -9 5 -15 11 -13 6 2 11 8 11 13 0 5 -5 11 -11 13 -6 2
-11 -4 -11 -13z"/>
<path d="M250 1385 c0 -9 5 -15 11 -13 6 2 11 8 11 13 0 5 -5 11 -11 13 -6 2
-11 -4 -11 -13z"/>
<path d="M300 1391 c0 -6 5 -13 10 -16 6 -3 10 1 10 9 0 9 -4 16 -10 16 -5 0
-10 -4 -10 -9z"/>
<path d="M350 1390 c0 -5 7 -10 15 -10 8 0 15 5 15 10 0 6 -7 10 -15 10 -8 0
-15 -4 -15 -10z"/>
<path d="M400 1390 c0 -5 5 -10 10 -10 6 0 10 5 10 10 0 6 -4 10 -10 10 -5 0
-10 -4 -10 -10z"/>
<path d="M450 1390 c0 -5 5 -10 11 -10 5 0 7 5 4 10 -3 6 -8 10 -11 10 -2 0
-4 -4 -4 -10z"/>
<path d="M100 1331 c0 -12 5 -21 10 -21 6 0 10 6 10 14 0 8 -4 18 -10 21 -5 3
-10 -3 -10 -14z"/>
<path d="M4210 1330 c0 -11 7 -20 15 -20 8 0 15 9 15 20 0 11 -7 20 -15 20 -8
0 -15 -9 -15 -20z"/>
<path d="M40 1325 c0 -8 7 -15 15 -15 8 0 15 7 15 15 0 8 -7 15 -15 15 -8 0
-15 -7 -15 -15z"/>
<path d="M150 1325 c0 -8 7 -15 15 -15 8 0 15 7 15 15 0 8 -7 15 -15 15 -8 0
-15 -7 -15 -15z"/>
<path d="M200 1331 c0 -6 5 -13 10 -16 6 -3 10 1 10 9 0 9 -4 16 -10 16 -5 0
-10 -4 -10 -9z"/>
<path d="M250 1330 c0 -5 7 -10 15 -10 8 0 15 5 15 10 0 6 -7 10 -15 10 -8 0
-15 -4 -15 -10z"/>
<path d="M300 1331 c0 -6 5 -13 10 -16 6 -3 10 1 10 9 0 9 -4 16 -10 16 -5 0
-10 -4 -10 -9z"/>
<path d="M350 1324 c0 -8 5 -12 10 -9 6 3 10 10 10 16 0 5 -4 9 -10 9 -5 0
-10 -7 -10 -16z"/>
<path d="M400 1330 c0 -5 5 -10 10 -10 6 0 10 5 10 10 0 6 -4 10 -10 10 -5 0
-10 -4 -10 -10z"/>
<path d="M3910 1275 c0 -10 7 -15 18 -13 21 4 19 22 -2 26 -10 2 -16 -3 -16
-13z"/>
<path d="M3966 1283 c-11 -11 -6 -23 9 -23 8 0 15 4 15 9 0 13 -16 22 -24 14z"/>
<path d="M4010 1273 c0 -7 7 -13 15 -13 8 0 15 6 15 13 0 8 -7 14 -15 14 -8 0
-15 -6 -15 -14z"/>
<path d="M4056 1275 c4 -8 12 -15 20 -15 19 0 18 16 -2 24 -22 9 -24 8 -18 -9z"/>
<path d="M4178 1283 c-24 -6 -23 -23 2 -23 11 0 20 7 20 15 0 8 -1 14 -2 14
-2 -1 -11 -3 -20 -6z"/>
<path d="M250 1270 c0 -5 7 -10 15 -10 8 0 15 5 15 10 0 6 -7 10 -15 10 -8 0
-15 -4 -15 -10z"/>
<path d="M300 1270 c0 -5 5 -10 10 -10 6 0 10 5 10 10 0 6 -4 10 -10 10 -5 0
-10 -4 -10 -10z"/>
<path d="M350 1270 c0 -5 5 -10 10 -10 6 0 10 5 10 10 0 6 -4 10 -10 10 -5 0
-10 -4 -10 -10z"/>
<path d="M500 1270 c0 -5 5 -10 10 -10 6 0 10 5 10 10 0 6 -4 10 -10 10 -5 0
-10 -4 -10 -10z"/>
<path d="M540 1270 c0 -5 7 -10 15 -10 8 0 15 5 15 10 0 6 -7 10 -15 10 -8 0
-15 -4 -15 -10z"/>
<path d="M4110 1270 c0 -5 7 -10 15 -10 8 0 15 5 15 10 0 6 -7 10 -15 10 -8 0
-15 -4 -15 -10z"/>
<path d="M4212 1268 c6 -18 28 -21 28 -4 0 9 -7 16 -16 16 -9 0 -14 -5 -12
-12z"/>
<path d="M3510 1220 c0 -13 5 -20 13 -17 6 2 12 10 12 17 0 7 -6 15 -12 18 -8
2 -13 -5 -13 -18z"/>
<path d="M546 1221 c-4 -5 -2 -12 3 -15 5 -4 12 -2 15 3 4 5 2 12 -3 15 -5 4
-12 2 -15 -3z"/>
<path d="M700 1221 c0 -6 5 -13 10 -16 6 -3 10 1 10 9 0 9 -4 16 -10 16 -5 0
-10 -4 -10 -9z"/>
<path d="M750 1215 c0 -8 7 -15 15 -15 8 0 15 7 15 15 0 8 -7 15 -15 15 -8 0
-15 -7 -15 -15z"/>
<path d="M800 1215 c0 -8 5 -15 10 -15 6 0 10 7 10 15 0 8 -4 15 -10 15 -5 0
-10 -7 -10 -15z"/>
<path d="M850 1215 c0 -8 5 -15 10 -15 6 0 10 7 10 15 0 8 -4 15 -10 15 -5 0
-10 -7 -10 -15z"/>
<path d="M900 1215 c0 -8 5 -15 10 -15 6 0 10 7 10 15 0 8 -4 15 -10 15 -5 0
-10 -7 -10 -15z"/>
<path d="M1301 1214 c0 -11 3 -14 6 -6 3 7 2 16 -1 19 -3 4 -6 -2 -5 -13z"/>
<path d="M1342 1221 c2 -7 7 -12 11 -12 12 1 9 15 -3 20 -7 2 -11 -2 -8 -8z"/>
<path d="M1396 1221 c-4 -5 -2 -12 3 -15 5 -4 12 -2 15 3 4 5 2 12 -3 15 -5 4
-12 2 -15 -3z"/>
<path d="M1440 1214 c0 -17 22 -14 28 4 2 7 -3 12 -12 12 -9 0 -16 -7 -16 -16z"/>
<path d="M3450 1215 c0 -8 7 -15 15 -15 8 0 15 7 15 15 0 8 -7 15 -15 15 -8 0
-15 -7 -15 -15z"/>
<path d="M3560 1220 c0 -5 5 -10 10 -10 6 0 10 5 10 10 0 6 -4 10 -10 10 -5 0
-10 -4 -10 -10z"/>
<path d="M3605 1220 c3 -5 10 -10 16 -10 5 0 9 5 9 10 0 6 -7 10 -16 10 -8 0
-12 -4 -9 -10z"/>
<path d="M3705 1220 c-3 -5 1 -10 9 -10 9 0 16 5 16 10 0 6 -4 10 -9 10 -6 0
-13 -4 -16 -10z"/>
<path d="M3917 1223 c-12 -11 -8 -23 8 -23 8 0 15 7 15 15 0 16 -12 20 -23 8z"/>
<path d="M3960 1215 c0 -8 7 -15 15 -15 8 0 15 7 15 15 0 8 -7 15 -15 15 -8 0
-15 -7 -15 -15z"/>
<path d="M4010 1214 c0 -9 5 -14 12 -12 18 6 21 28 4 28 -9 0 -16 -7 -16 -16z"/>
<path d="M4060 1215 c0 -8 7 -15 15 -15 8 0 15 7 15 15 0 8 -7 15 -15 15 -8 0
-15 -7 -15 -15z"/>
<path d="M4110 1215 c0 -8 7 -15 15 -15 8 0 15 7 15 15 0 8 -7 15 -15 15 -8 0
-15 -7 -15 -15z"/>
<path d="M4170 1215 c0 -9 5 -15 11 -13 6 2 11 8 11 13 0 5 -5 11 -11 13 -6 2
-11 -4 -11 -13z"/>
<path d="M4210 1215 c0 -8 7 -15 15 -15 8 0 15 4 15 9 0 5 -7 11 -15 15 -9 3
-15 0 -15 -9z"/>
<path d="M3163 1173 c-18 -7 -16 -33 2 -33 8 0 15 9 15 20 0 11 -1 20 -2 19
-2 0 -9 -3 -15 -6z"/>
<path d="M3252 1163 c5 -25 28 -28 28 -4 0 12 -6 21 -16 21 -9 0 -14 -7 -12
-17z"/>
<path d="M3404 1166 c-8 -22 3 -33 18 -18 9 9 9 15 0 24 -9 9 -13 7 -18 -6z"/>
<path d="M3457 1173 c-13 -12 -7 -33 8 -33 8 0 15 9 15 20 0 20 -11 26 -23 13z"/>
<path d="M3510 1160 c0 -11 5 -20 10 -20 6 0 10 9 10 20 0 11 -4 20 -10 20 -5
0 -10 -9 -10 -20z"/>
<path d="M3700 1165 c0 -8 7 -15 15 -15 8 0 15 7 15 15 0 8 -7 15 -15 15 -8 0
-15 -7 -15 -15z"/>
<path d="M3806 1172 c-3 -6 -1 -14 5 -17 15 -10 25 3 12 16 -7 7 -13 7 -17 1z"/>
<path d="M692 1158 c6 -18 28 -21 28 -4 0 9 -7 16 -16 16 -9 0 -14 -5 -12 -12z"/>
<path d="M750 1155 c0 -8 5 -15 10 -15 6 0 10 7 10 15 0 8 -4 15 -10 15 -5 0
-10 -7 -10 -15z"/>
<path d="M800 1155 c0 -8 5 -15 10 -15 6 0 10 7 10 15 0 8 -4 15 -10 15 -5 0
-10 -7 -10 -15z"/>
<path d="M850 1156 c0 -9 5 -16 10 -16 6 0 10 4 10 9 0 6 -4 13 -10 16 -5 3
-10 -1 -10 -9z"/>
<path d="M900 1156 c0 -9 5 -16 10 -16 6 0 10 4 10 9 0 6 -4 13 -10 16 -5 3
-10 -1 -10 -9z"/>
<path d="M950 1160 c0 -5 5 -10 11 -10 5 0 7 5 4 10 -3 6 -8 10 -11 10 -2 0
-4 -4 -4 -10z"/>
<path d="M1040 1160 c0 -13 18 -22 24 -11 3 5 -1 11 -9 15 -8 3 -15 1 -15 -4z"/>
<path d="M1092 1158 c6 -18 28 -21 28 -4 0 9 -7 16 -16 16 -9 0 -14 -5 -12
-12z"/>
<path d="M1140 1155 c0 -8 7 -15 15 -15 8 0 15 7 15 15 0 8 -7 15 -15 15 -8 0
-15 -7 -15 -15z"/>
<path d="M1300 1154 c0 -8 5 -12 10 -9 6 3 10 10 10 16 0 5 -4 9 -10 9 -5 0
-10 -7 -10 -16z"/>
<path d="M1340 1160 c0 -5 7 -10 15 -10 8 0 15 5 15 10 0 6 -7 10 -15 10 -8 0
-15 -4 -15 -10z"/>
<path d="M1390 1154 c0 -17 22 -14 28 4 2 7 -3 12 -12 12 -9 0 -16 -7 -16 -16z"/>
<path d="M1440 1155 c0 -8 7 -15 15 -15 8 0 15 7 15 15 0 8 -7 15 -15 15 -8 0
-15 -7 -15 -15z"/>
<path d="M3000 1155 c0 -8 7 -15 15 -15 8 0 15 7 15 15 0 8 -7 15 -15 15 -8 0
-15 -7 -15 -15z"/>
<path d="M3050 1155 c0 -8 7 -15 15 -15 8 0 15 7 15 15 0 8 -7 15 -15 15 -8 0
-15 -7 -15 -15z"/>
<path d="M3100 1154 c0 -9 5 -14 12 -12 18 6 21 28 4 28 -9 0 -16 -7 -16 -16z"/>
<path d="M3760 1155 c0 -8 5 -15 10 -15 6 0 10 7 10 15 0 8 -4 15 -10 15 -5 0
-10 -7 -10 -15z"/>
<path d="M3960 1155 c0 -6 27 -10 65 -10 37 0 65 4 65 10 0 6 -28 10 -65 10
-38 0 -65 -4 -65 -10z"/>
<path d="M4162 1158 c6 -18 28 -21 28 -4 0 9 -7 16 -16 16 -9 0 -14 -5 -12
-12z"/>
<path d="M4212 1158 c6 -18 28 -21 28 -4 0 9 -7 16 -16 16 -9 0 -14 -5 -12
-12z"/>
<path d="M545 1150 c4 -6 11 -8 16 -5 14 9 11 15 -7 15 -8 0 -12 -5 -9 -10z"/>
<path d="M995 1150 c3 -5 10 -10 16 -10 5 0 9 5 9 10 0 6 -7 10 -16 10 -8 0
-12 -4 -9 -10z"/>
<path d="M3915 1150 c4 -6 11 -8 16 -5 14 9 11 15 -7 15 -8 0 -12 -5 -9 -10z"/>
<path d="M597 1113 c-12 -11 -8 -23 8 -23 8 0 15 7 15 15 0 16 -12 20 -23 8z"/>
<path d="M3207 1106 c-7 -16 1 -26 20 -26 7 0 13 9 13 20 0 23 -25 27 -33 6z"/>
<path d="M3516 1111 c-4 -7 -5 -15 -2 -18 9 -9 19 4 14 18 -4 11 -6 11 -12 0z"/>
<path d="M3750 1105 c0 -8 9 -15 20 -15 11 0 20 7 20 15 0 8 -9 15 -20 15 -11
0 -20 -7 -20 -15z"/>
<path d="M940 1100 c0 -5 5 -10 10 -10 6 0 10 5 10 10 0 6 -4 10 -10 10 -5 0
-10 -4 -10 -10z"/>
<path d="M1090 1100 c0 -5 7 -10 15 -10 8 0 15 5 15 10 0 6 -7 10 -15 10 -8 0
-15 -4 -15 -10z"/>
<path d="M1295 1100 c3 -5 10 -10 16 -10 5 0 9 5 9 10 0 6 -7 10 -16 10 -8 0
-12 -4 -9 -10z"/>
<path d="M1340 1100 c0 -5 7 -10 15 -10 8 0 15 5 15 10 0 6 -7 10 -15 10 -8 0
-15 -4 -15 -10z"/>
<path d="M1390 1095 c0 -8 7 -15 15 -15 8 0 15 7 15 15 0 8 -7 15 -15 15 -8 0
-15 -7 -15 -15z"/>
<path d="M1440 1095 c0 -8 7 -15 15 -15 8 0 15 7 15 15 0 8 -7 15 -15 15 -8 0
-15 -7 -15 -15z"/>
<path d="M1492 1098 c6 -18 28 -21 28 -4 0 9 -7 16 -16 16 -9 0 -14 -5 -12
-12z"/>
<path d="M3050 1095 c0 -8 7 -15 15 -15 8 0 15 7 15 15 0 8 -7 15 -15 15 -8 0
-15 -7 -15 -15z"/>
<path d="M3150 1095 c0 -8 7 -15 15 -15 8 0 15 7 15 15 0 8 -7 15 -15 15 -8 0
-15 -7 -15 -15z"/>
<path d="M3400 1100 c0 -5 7 -10 15 -10 8 0 15 5 15 10 0 6 -7 10 -15 10 -8 0
-15 -4 -15 -10z"/>
<path d="M3450 1100 c0 -5 7 -10 15 -10 8 0 15 5 15 10 0 6 -7 10 -15 10 -8 0
-15 -4 -15 -10z"/>
<path d="M1300 1040 c0 -19 3 -21 12 -12 9 9 9 15 0 24 -9 9 -12 7 -12 -12z"/>
<path d="M1342 1046 c1 -10 8 -17 13 -17 15 1 12 24 -3 29 -9 3 -13 -2 -10
-12z"/>
<path d="M3000 1046 c0 -10 9 -16 21 -16 24 0 21 23 -4 28 -10 2 -17 -3 -17
-12z"/>
<path d="M3157 1053 c-4 -3 -7 -12 -7 -20 0 -15 26 -18 34 -4 7 11 -18 33 -27
24z"/>
<path d="M3210 1039 c0 -12 5 -19 12 -17 18 6 20 25 3 31 -10 5 -15 0 -15 -14z"/>
<path d="M1497 1043 c-13 -12 -7 -23 13 -23 11 0 20 7 20 15 0 15 -21 21 -33
8z"/>
<path d="M3110 1034 c0 -8 5 -12 10 -9 6 3 10 10 10 16 0 5 -4 9 -10 9 -5 0
-10 -7 -10 -16z"/>
<path d="M2903 994 c-7 -18 17 -38 31 -24 11 11 1 40 -14 40 -6 0 -13 -7 -17
-16z"/>
<path d="M2957 1004 c-14 -15 -6 -34 14 -34 14 0 19 5 17 17 -3 18 -20 27 -31
17z"/>
<path d="M1595 990 c-3 -6 1 -13 10 -16 19 -8 30 0 20 15 -8 14 -22 14 -30 1z"/>
<path d="M1647 994 c-13 -13 -7 -24 14 -24 11 0 19 5 17 12 -5 14 -22 21 -31
12z"/>
<path d="M1700 986 c0 -9 7 -16 16 -16 9 0 14 5 12 12 -6 18 -28 21 -28 4z"/>
<path d="M3210 985 c0 -8 7 -15 15 -15 8 0 15 4 15 9 0 5 -7 11 -15 15 -9 3
-15 0 -15 -9z"/>
<path d="M1300 980 c0 -5 5 -10 10 -10 6 0 10 5 10 10 0 6 -4 10 -10 10 -5 0
-10 -4 -10 -10z"/>
<path d="M1340 980 c0 -5 7 -10 15 -10 8 0 15 5 15 10 0 6 -7 10 -15 10 -8 0
-15 -4 -15 -10z"/>
<path d="M1500 980 c0 -5 5 -10 10 -10 6 0 10 5 10 10 0 6 -4 10 -10 10 -5 0
-10 -4 -10 -10z"/>
<path d="M3150 980 c0 -5 7 -10 15 -10 8 0 15 5 15 10 0 6 -7 10 -15 10 -8 0
-15 -4 -15 -10z"/>
<path d="M1342 929 c2 -6 8 -10 13 -10 5 0 11 4 13 10 2 6 -4 11 -13 11 -9 0
-15 -5 -13 -11z"/>
<path d="M1550 925 c0 -8 5 -15 10 -15 6 0 10 7 10 15 0 8 -4 15 -10 15 -5 0
-10 -7 -10 -15z"/>
<path d="M1600 925 c0 -8 5 -15 10 -15 6 0 10 7 10 15 0 8 -4 15 -10 15 -5 0
-10 -7 -10 -15z"/>
<path d="M1650 924 c0 -17 22 -14 28 4 2 7 -3 12 -12 12 -9 0 -16 -7 -16 -16z"/>
<path d="M1700 925 c0 -8 5 -15 10 -15 6 0 10 7 10 15 0 8 -4 15 -10 15 -5 0
-10 -7 -10 -15z"/>
<path d="M1750 925 c0 -8 7 -15 15 -15 8 0 15 7 15 15 0 8 -7 15 -15 15 -8 0
-15 -7 -15 -15z"/>
<path d="M1800 925 c0 -8 6 -16 13 -16 6 -1 19 -2 27 -3 10 -1 14 -10 13 -28
-1 -18 3 -28 12 -28 9 0 13 14 13 45 0 31 -4 45 -13 45 -7 0 -16 -6 -18 -12
-4 -10 -6 -10 -6 0 -1 17 -41 15 -41 -3z"/>
<path d="M2807 933 c-12 -11 -8 -23 8 -23 8 0 15 7 15 15 0 16 -12 20 -23 8z"/>
<path d="M2860 925 c0 -8 5 -15 10 -15 6 0 10 7 10 15 0 8 -4 15 -10 15 -5 0
-10 -7 -10 -15z"/>
<path d="M2910 925 c0 -8 5 -15 10 -15 6 0 10 7 10 15 0 8 -4 15 -10 15 -5 0
-10 -7 -10 -15z"/>
<path d="M2950 925 c0 -8 7 -15 15 -15 8 0 15 7 15 15 0 8 -7 15 -15 15 -8 0
-15 -7 -15 -15z"/>
<path d="M3150 925 c0 -8 7 -15 15 -15 8 0 15 7 15 15 0 8 -7 15 -15 15 -8 0
-15 -7 -15 -15z"/>
<path d="M3210 925 c0 -8 7 -15 15 -15 8 0 15 7 15 15 0 8 -7 15 -15 15 -8 0
-15 -7 -15 -15z"/>
<path d="M1750 866 c0 -9 7 -16 16 -16 9 0 14 5 12 12 -6 18 -28 21 -28 4z"/>
<path d="M1797 860 c3 -11 12 -20 19 -20 8 0 14 9 14 20 0 13 -7 20 -19 20
-14 0 -18 -5 -14 -20z"/>
<path d="M2800 860 c0 -11 7 -20 15 -20 8 0 15 9 15 20 0 11 -7 20 -15 20 -8
0 -15 -9 -15 -20z"/>
<path d="M2860 859 c0 -11 5 -17 10 -14 6 3 10 13 10 21 0 8 -4 14 -10 14 -5
0 -10 -9 -10 -21z"/>
<path d="M2905 870 c-11 -17 5 -32 21 -19 7 6 11 15 8 20 -7 12 -21 11 -29 -1z"/>
<path d="M2952 868 c6 -18 28 -21 28 -4 0 9 -7 16 -16 16 -9 0 -14 -5 -12 -12z"/>
<path d="M3150 870 c0 -5 7 -10 15 -10 8 0 15 5 15 10 0 6 -7 10 -15 10 -8 0
-15 -4 -15 -10z"/>
<path d="M1550 860 c0 -5 5 -10 10 -10 6 0 10 5 10 10 0 6 -4 10 -10 10 -5 0
-10 -4 -10 -10z"/>
<path d="M1750 800 c0 -11 5 -20 10 -20 6 0 10 9 10 20 0 11 -4 20 -10 20 -5
0 -10 -9 -10 -20z"/>
<path d="M1800 799 c0 -24 23 -21 28 4 2 10 -3 17 -12 17 -10 0 -16 -9 -16
-21z"/>
<path d="M1852 804 c4 -21 22 -23 26 -1 2 10 -3 17 -13 17 -10 0 -15 -6 -13
-16z"/>
<path d="M2700 805 c0 -8 7 -15 15 -15 8 0 15 7 15 15 0 8 -7 15 -15 15 -8 0
-15 -7 -15 -15z"/>
<path d="M2800 810 c0 -5 7 -10 15 -10 8 0 15 5 15 10 0 6 -7 10 -15 10 -8 0
-15 -4 -15 -10z"/>
<path d="M2860 810 c0 -5 5 -10 10 -10 6 0 10 5 10 10 0 6 -4 10 -10 10 -5 0
-10 -4 -10 -10z"/>
<path d="M2910 810 c0 -5 5 -10 10 -10 6 0 10 5 10 10 0 6 -4 10 -10 10 -5 0
-10 -4 -10 -10z"/>
<path d="M1550 800 c0 -5 5 -10 10 -10 6 0 10 5 10 10 0 6 -4 10 -10 10 -5 0
-10 -4 -10 -10z"/>
<path d="M1600 800 c0 -5 5 -10 10 -10 6 0 10 5 10 10 0 6 -4 10 -10 10 -5 0
-10 -4 -10 -10z"/>
<path d="M1796 751 c-7 -11 18 -33 27 -24 4 3 7 12 7 20 0 15 -26 18 -34 4z"/>
<path d="M1850 745 c0 -8 7 -15 15 -15 8 0 15 7 15 15 0 8 -7 15 -15 15 -8 0
-15 -7 -15 -15z"/>
<path d="M2700 740 c0 -11 7 -20 15 -20 8 0 15 9 15 20 0 11 -7 20 -15 20 -8
0 -15 -9 -15 -20z"/>
<path d="M2755 750 c-7 -12 2 -30 16 -30 5 0 9 9 9 20 0 21 -15 27 -25 10z"/>
<path d="M1550 740 c0 -5 5 -10 10 -10 6 0 10 5 10 10 0 6 -4 10 -10 10 -5 0
-10 -4 -10 -10z"/>
<path d="M2810 734 c0 -8 5 -12 10 -9 6 3 10 10 10 16 0 5 -4 9 -10 9 -5 0
-10 -7 -10 -16z"/>
<path d="M1550 685 c0 -8 5 -15 10 -15 6 0 10 7 10 15 0 8 -4 15 -10 15 -5 0
-10 -7 -10 -15z"/>
<path d="M2642 688 c7 -19 38 -22 38 -4 0 10 -9 16 -21 16 -12 0 -19 -5 -17
-12z"/>
<path d="M2700 685 c0 -8 7 -15 15 -15 8 0 15 7 15 15 0 8 -7 15 -15 15 -8 0
-15 -7 -15 -15z"/>
<path d="M2752 688 c6 -18 28 -21 28 -4 0 9 -7 16 -16 16 -9 0 -14 -5 -12 -12z"/>
<path d="M2602 633 c5 -25 28 -28 28 -4 0 12 -6 21 -16 21 -9 0 -14 -7 -12
-17z"/>
<path d="M2005 570 c3 -5 8 -10 11 -10 2 0 4 5 4 10 0 6 -5 10 -11 10 -5 0 -7
-4 -4 -10z"/>
<path d="M2055 570 c3 -5 10 -10 16 -10 5 0 9 5 9 10 0 6 -7 10 -16 10 -8 0
-12 -4 -9 -10z"/>
<path d="M2100 570 c0 -5 5 -10 10 -10 6 0 10 5 10 10 0 6 -4 10 -10 10 -5 0
-10 -4 -10 -10z"/>
<path d="M2050 520 c0 -5 7 -10 15 -10 8 0 15 5 15 10 0 6 -7 10 -15 10 -8 0
-15 -4 -15 -10z"/>
<path d="M2100 520 c0 -5 5 -10 10 -10 6 0 10 5 10 10 0 6 -4 10 -10 10 -5 0
-10 -4 -10 -10z"/>
<path d="M2290 455 c0 -16 16 -20 24 -6 3 5 -1 11 -9 15 -9 3 -15 0 -15 -9z"/>
<path d="M2190 450 c0 -5 7 -10 15 -10 8 0 15 5 15 10 0 6 -7 10 -15 10 -8 0
-15 -4 -15 -10z"/>
<path d="M2240 450 c0 -5 5 -10 10 -10 6 0 10 5 10 10 0 6 -4 10 -10 10 -5 0
-10 -4 -10 -10z"/>
<path d="M2196 383 c-11 -11 -6 -23 9 -23 8 0 15 4 15 9 0 13 -16 22 -24 14z"/>
<path d="M2240 375 c0 -8 5 -15 10 -15 6 0 10 7 10 15 0 8 -4 15 -10 15 -5 0
-10 -7 -10 -15z"/>
<path d="M2290 375 c0 -8 5 -15 10 -15 6 0 10 7 10 15 0 8 -4 15 -10 15 -5 0
-10 -7 -10 -15z"/>
</g>
</svg>
